<svg width="1440" height="344" viewBox="0 0 1440 344" fill="none" xmlns="http://www.w3.org/2000/svg">
<path d="M97.5209 415.139C97.5209 415.139 -161.66 276.033 165.034 210.275C327.953 177.49 366.273 160.643 492.855 97.1886C674.028 6.34252 911.485 -46.1589 1220.18 114.005C1528.88 274.169 1761.84 323.843 1558.6 419.872C1330.15 527.817 1469.12 583.324 1440.48 613.752C1432.85 621.846 1384.57 587.23 1278.24 622.873C1036.07 704.054 912.818 580.549 734.721 611.355C566.743 640.412 480.429 576.141 425.752 601.271C344.207 638.768 293.188 638.286 262.542 628.422C236.905 620.15 221.813 603.072 222.992 585.177C224.342 564.843 224.581 526.76 211.199 499.043C190.962 457.149 141.72 435.725 97.5209 415.139Z" fill="#F5F5FC"/>
<path d="M98.3824 412.274C98.3824 412.274 -163.069 270.369 166.456 203.296C330.732 169.842 369.398 152.666 497.024 87.9237C679.761 -4.75226 919.182 -58.3088 1230.45 105.079C1541.72 268.467 1784.23 325.661 1571.73 417.093C1424.56 480.414 1474.38 449.501 1428.54 471.204C1331.2 517.202 1109.79 430.778 930.18 462.203C760.781 491.84 595.992 447.567 522.385 444.567C493.215 443.396 375.512 443.124 316.216 441.18C283.033 440.134 246.451 448.989 200.476 442.309C131.19 432.241 142.94 433.287 98.3824 412.274Z" fill="#F8F8FF"/>
<path d="M426.068 281.97C426.068 281.97 492.329 224.154 408.808 196.824C367.156 183.198 357.36 176.195 324.998 149.822C278.68 112.064 217.972 90.2433 139.052 156.811C60.1315 223.38 0.573147 244.025 52.5327 283.937C110.937 328.802 75.4078 351.872 82.7314 364.519C84.6802 367.883 97.0245 353.495 124.208 368.31C186.122 402.051 217.631 350.719 263.163 363.522C306.108 375.599 328.175 348.887 342.153 359.331C363.001 374.916 376.044 374.716 383.879 370.616C390.434 367.178 394.292 360.08 393.99 352.642C393.645 344.191 393.584 328.363 397.005 316.843C402.179 299.431 414.768 290.526 426.068 281.97Z" fill="#F5F5FC"/>
<path d="M425.868 280.71C425.868 280.71 492.656 221.607 408.479 193.672C366.515 179.738 356.638 172.585 324.036 145.62C277.356 107.021 216.197 84.7147 136.684 152.765C57.171 220.815 -4.77816 244.636 49.5058 282.717C87.0985 309.09 74.3727 296.215 86.082 305.254C110.949 324.412 167.506 288.417 213.387 301.505C256.66 313.849 298.755 295.409 317.558 294.16C325.009 293.672 355.076 293.559 370.223 292.749C378.7 292.314 388.045 296.002 399.789 293.219C417.488 289.026 414.486 289.462 425.868 280.71Z" fill="#F8F8FF"/>
<path d="M125.385 326.64C125.385 326.64 132.595 335.174 126.688 335.409C120.781 335.644 108.662 342.521 106.343 336.359C104.024 330.197 99.3934 327.115 102.221 326.405C105.049 325.695 107.629 322.849 113.553 323.324C119.477 323.799 125.385 326.64 125.385 326.64Z" fill="#F5F5FC"/>
<path d="M127.27 285.099C127.27 285.099 130.649 285.465 130.649 289.662C130.649 293.859 128.477 330.249 120.225 330.964C114.86 331.43 109.184 331.399 106.378 331.129C105.166 331.012 103.976 327.338 103.772 325.865C102.681 318.634 101.278 301.023 100.97 290.764C100.909 288.694 102.33 285.918 103.072 285.238C107.173 281.482 127.27 285.099 127.27 285.099Z" fill="#E1E6FB"/>
<path d="M87.3361 214.755C88.6391 213.539 90.4546 215.19 89.764 216.908C89.1082 218.551 88.6521 221.405 91.2799 224.464C95.3584 229.21 110.07 245.248 109.922 255.56C109.774 265.871 112.962 268.747 109.922 272.674C106.882 276.601 94.6287 276.444 91.4232 268.098C88.2178 259.752 80.0869 256.379 80.2432 244.438C80.3996 232.496 81.8242 227.249 83.2836 223.161C84.1871 220.568 85.6291 216.358 87.3361 214.755Z" fill="#E9EDFB"/>
<path d="M109.622 283.552C109.622 283.552 108.319 264.86 93.76 256.723C84.6388 251.624 84.022 233.926 86.2024 229.925" stroke="white" stroke-width="3" stroke-linecap="round" stroke-linejoin="round"/>
<path d="M107.755 291.401C107.755 291.401 103.168 309.801 108.137 324.37Z" fill="#BAC5F4"/>
<path d="M97.2695 210.684C98.6551 209.521 100.61 211.09 99.8756 212.741C99.1719 214.315 98.6855 217.043 101.5 219.967C105.87 224.508 121.627 239.849 121.48 249.711C121.332 259.573 121.48 265.365 118.205 269.122C114.93 272.879 107.346 269.863 103.928 261.879C100.51 253.895 89.5165 250.496 89.6728 239.064C89.8292 227.633 91.3668 222.625 92.9261 218.712C93.8947 216.245 95.4453 212.218 97.2695 210.684Z" fill="#BAC5F4"/>
<path d="M115.703 283.935C115.703 283.935 120.828 258.506 108.35 243.244C103.359 237.142 95.9578 224.887 96.0229 218.978" stroke="white" stroke-width="3" stroke-linecap="round" stroke-linejoin="round"/>
<path d="M136.161 214.755C134.879 213.539 133.068 215.19 133.75 216.908C134.402 218.551 134.853 221.405 132.247 224.464C128.203 229.21 113.614 245.248 113.757 255.56C113.901 265.871 113.757 271.924 116.798 275.855C119.838 279.786 126.835 276.631 130.015 268.285C133.194 259.939 143.349 256.379 143.223 244.438C143.097 232.496 141.655 227.249 140.209 223.161C139.279 220.568 137.85 216.358 136.161 214.755Z" fill="#E9EDFB"/>
<path d="M119.768 284.397C119.768 284.397 113.896 261.299 125.45 246.046C130.071 239.945 137.472 230.897 137.412 224.988" stroke="white" stroke-width="3" stroke-linecap="round" stroke-linejoin="round"/>
<path d="M145.529 255.032C145.529 255.032 157.6 255.311 164.115 240.598C170.63 225.885 155.971 222.917 145.16 230.793C134.349 238.668 138.793 241.936 125.91 249.219C113.027 256.501 115.838 270.913 119.829 274.775C123.821 278.636 131.378 284.58 136.417 268.978C141.455 253.376 145.529 255.032 145.529 255.032Z" fill="#B0C0F4"/>
<path d="M122.084 284.58C122.084 284.58 121.215 247.811 157.574 237.678" stroke="white" stroke-width="3" stroke-linecap="round" stroke-linejoin="round"/>
<path d="M127.27 285.099C127.27 285.099 112.472 282.711 106.69 283.962C100.909 285.212 116.889 286.69 116.889 286.69C116.889 286.69 124.503 287.03 127.27 285.099Z" fill="#BAC5F4"/>
<path d="M308.685 289.864C308.685 289.864 325.466 276.599 328.302 263.587C331.138 250.575 324.994 241.558 316.014 240.139C307.033 238.72 301.593 234.445 270.164 245.114C238.736 255.782 202.57 236.823 202.57 236.823C202.57 236.823 173.017 223.198 158.434 226.522C141.829 230.302 138.298 240.375 142.786 258.379C147.273 276.384 162.564 290 162.564 290L308.685 289.864Z" fill="#BAC5F4"/>
<path d="M314.84 287C314.84 287 317.451 287 317.887 289.67C318.322 292.339 317.451 300.793 316.146 303.463C314.84 306.132 308.715 305.999 308.715 305.999L159.433 305.687C159.433 305.687 154.475 305.741 153.338 301.683C152.429 298.422 151.101 295.169 151.005 292.918C150.889 290.265 152.761 287.956 155.332 287.578C156.953 287.375 158.583 287.265 160.216 287.249C171.539 287.245 314.84 287 314.84 287Z" fill="#BAC5F4"/>
<path d="M323 328L312.902 306H305L315.537 328H323V328Z" fill="white"/>
<path d="M168 306L158.667 328L152 327.569L160.889 306H168V306Z" fill="white"/>
<path d="M305.451 288C305.451 288 319.268 277.255 319.915 272.783C320.758 266.99 315.544 258.333 295.341 262.166C275.138 265.999 239.515 276.369 220.208 271.061C200.901 265.752 176.599 243.557 174.85 242.385C173.102 241.213 152.445 230.957 147.75 246.583C143.056 262.21 161.93 287.833 161.93 287.833L305.451 288Z" fill="#B0C0F4"/>
<path d="M238 111L237.392 141L236.654 140.872L236 111H238V111Z" fill="#BAC5F4"/>
<path d="M253.376 164.739C253.376 164.739 258.91 140.235 237.013 140.001C216.297 139.78 221.611 166 221.611 166L253.376 164.739Z" fill="#BAC5F4"/>
<path d="M254 164.271C254 164.271 236.387 156.135 222 165.526C222 165.526 237.142 174.122 254 164.271Z" fill="white"/>
<path d="M245 144C245 144 252.283 146.885 250.801 160Z" fill="white"/>
<path d="M253.605 165L269 220L206 219.386L221.887 166.158L253.605 165V165Z" fill="url(#paint0_linear)"/>
<path d="M1297.42 343L1297.36 183.894C1297.36 183.894 1220.83 177.847 1232.14 129.952C1239.59 98.4075 1264.78 95.9269 1264.17 79.2921C1263.73 67.2763 1274.66 18.0761 1307.7 44.8791C1333.8 66.0553 1321.53 83.517 1335.01 85.9977C1348.81 88.5365 1365.65 111.735 1356.29 125.34C1346.93 138.945 1357.36 139.449 1357.36 146.251C1357.36 153.054 1362.89 172.834 1334.81 177.906C1306.73 182.977 1301.28 184.637 1301.28 184.637L1303.64 342.968L1297.42 343Z" fill="#B1C1F2"/>
<path d="M1278.81 343V263.019C1278.81 263.019 1252.5 259.974 1256.39 235.839C1258.97 219.945 1267.61 218.693 1267.4 210.31C1267.25 204.257 1271.01 179.464 1282.37 192.97C1291.34 203.637 1287.12 212.44 1291.75 213.692C1296.5 214.982 1302.29 226.662 1299.07 233.516C1295.85 240.369 1299.44 240.614 1299.44 244.054C1299.44 247.493 1301.37 257.45 1291.7 260.019C1282.03 262.587 1281.77 262.6 1281.77 262.6L1281.93 342.748L1278.81 343Z" fill="#B1C1F2"/>
<path d="M1254.74 343.923L1254.82 209.317C1254.82 209.317 1309.23 204.203 1301.19 163.663C1295.89 136.961 1277.98 134.863 1278.42 120.792C1278.73 110.622 1270.96 68.984 1247.47 91.669C1228.91 109.588 1237.63 124.369 1228.06 126.468C1218.24 128.618 1206.27 148.249 1212.92 159.769C1219.58 171.289 1212.17 171.709 1212.17 177.469C1212.17 183.229 1208.23 199.967 1228.21 204.287C1248.18 208.607 1252.05 209.982 1252.05 209.982L1250.56 344L1254.74 343.923Z" fill="#BAC6F2"/>
<defs>
<linearGradient id="paint0_linear" x1="292.491" y1="135.403" x2="292.392" y2="231.222" gradientUnits="userSpaceOnUse">
<stop stop-color="white"/>
<stop offset="1" stop-color="white" stop-opacity="0.01"/>
</linearGradient>
</defs>
</svg>
