<?xml version="1.0" encoding="UTF-8" standalone="no"?>
<svg
   xmlns:dc="http://purl.org/dc/elements/1.1/"
   xmlns:cc="http://creativecommons.org/ns#"
   xmlns:rdf="http://www.w3.org/1999/02/22-rdf-syntax-ns#"
   xmlns:svg="http://www.w3.org/2000/svg"
   xmlns="http://www.w3.org/2000/svg"
   xmlns:sodipodi="http://sodipodi.sourceforge.net/DTD/sodipodi-0.dtd"
   xmlns:inkscape="http://www.inkscape.org/namespaces/inkscape"
   width="1440"
   height="884"
   viewBox="0 0 1440 884"
   fill="none"
   version="1.1"
   id="svg1565"
   sodipodi:docname="home-bg.svg"
   inkscape:version="0.92.4 (unknown)">
  <metadata
     id="metadata1569">
    <rdf:RDF>
      <cc:Work
         rdf:about="">
        <dc:format>image/svg+xml</dc:format>
        <dc:type
           rdf:resource="http://purl.org/dc/dcmitype/StillImage" />
        <dc:title></dc:title>
      </cc:Work>
    </rdf:RDF>
  </metadata>
  <sodipodi:namedview
     pagecolor="#ffffff"
     bordercolor="#666666"
     borderopacity="1"
     objecttolerance="10"
     gridtolerance="10"
     guidetolerance="10"
     inkscape:pageopacity="0"
     inkscape:pageshadow="2"
     inkscape:window-width="1920"
     inkscape:window-height="1025"
     id="namedview1567"
     showgrid="false"
     inkscape:zoom="0.67715295"
     inkscape:cx="675.71318"
     inkscape:cy="415.75955"
     inkscape:window-x="0"
     inkscape:window-y="27"
     inkscape:window-maximized="1"
     inkscape:current-layer="svg1565" />
  <g
     clip-path="url(#clip0)"
     id="g1540">
    <path
       d="M716.99 258.01C716.546 256.83 716.212 255.611 715.99 254.37C712.5 232.85 696.05 111.86 787.43 71.2501C832.43 51.2501 883.43 18.2501 1048.43 79.2501C1243.17 151.25 1370.43 29.2501 1400.43 29.2501C1430.43 29.2501 1498.43 -14.7499 1578.43 71.2501C1658.43 157.25 1598.43 261.25 1598.43 261.25C1598.43 261.25 1560.43 359.25 1572.43 409.25C1584.43 459.25 1598.43 499.25 1594.43 515.25C1590.43 531.25 1588.43 639.25 1522.43 663.25C1456.43 687.25 1478.43 683.25 1324.43 675.25C1170.43 667.25 1090.43 689.25 1058.43 701.25C1026.43 713.25 978.43 709.25 892.43 651.25C806.43 593.25 786.43 611.25 742.43 585.25C698.43 559.25 586.65 415.45 680.43 311.25C716.68 270.97 717.89 260.54 716.99 258.01Z"
       id="path1218"
       fill="#F8F8FF" />
    <path
       d="M839.58 210.6C856.193 210.6 869.66 197.133 869.66 180.52C869.66 163.907 856.193 150.44 839.58 150.44C822.967 150.44 809.5 163.907 809.5 180.52C809.5 197.133 822.967 210.6 839.58 210.6Z"
       id="path1220"
       fill="white" />
    <path
       d="M572.75 189.16C589.363 189.16 602.83 175.693 602.83 159.08C602.83 142.467 589.363 129 572.75 129C556.137 129 542.67 142.467 542.67 159.08C542.67 175.693 556.137 189.16 572.75 189.16Z"
       id="path1222"
       fill="#F8F8FF" />
    <path
       d="M605.42 179.42C616.731 179.42 625.9 170.251 625.9 158.94C625.9 147.629 616.731 138.46 605.42 138.46C594.109 138.46 584.94 147.629 584.94 158.94C584.94 170.251 594.109 179.42 605.42 179.42Z"
       id="path1224"
       fill="#F8F8FF" />
    <path
       d="M538.48 175C547.582 175 554.96 167.622 554.96 158.52C554.96 149.418 547.582 142.04 538.48 142.04C529.378 142.04 522 149.418 522 158.52C522 167.622 529.378 175 538.48 175Z"
       id="path1226"
       fill="#F8F8FF" />
    <path
       d="M14.75 189.16C31.3627 189.16 44.83 175.693 44.83 159.08C44.83 142.467 31.3627 129 14.75 129C-1.86273 129 -15.33 142.467 -15.33 159.08C-15.33 175.693 -1.86273 189.16 14.75 189.16Z"
       id="path1228"
       fill="#F8F8FF" />
    <path
       d="M47.42 179.42C58.7308 179.42 67.9 170.251 67.9 158.94C67.9 147.629 58.7308 138.46 47.42 138.46C36.1092 138.46 26.94 147.629 26.94 158.94C26.94 170.251 36.1092 179.42 47.42 179.42Z"
       id="path1230"
       fill="#F8F8FF" />
    <path
       d="M265 257C277.703 257 288 246.703 288 234C288 221.297 277.703 211 265 211C252.297 211 242 221.297 242 234C242 246.703 252.297 257 265 257Z"
       id="path1232"
       fill="#F8F8FF" />
    <path
       d="M290 250C298.837 250 306 242.837 306 234C306 225.163 298.837 218 290 218C281.163 218 274 225.163 274 234C274 242.837 281.163 250 290 250Z"
       id="path1234"
       fill="#F8F8FF" />
    <path
       d="M238.5 246C245.404 246 251 240.404 251 233.5C251 226.596 245.404 221 238.5 221C231.596 221 226 226.596 226 233.5C226 240.404 231.596 246 238.5 246Z"
       id="path1236"
       fill="#F8F8FF" />
    <path
       d="M872.25 200.86C883.561 200.86 892.73 191.691 892.73 180.38C892.73 169.069 883.561 159.9 872.25 159.9C860.939 159.9 851.77 169.069 851.77 180.38C851.77 191.691 860.939 200.86 872.25 200.86Z"
       id="path1238"
       fill="white" />
    <path
       d="M805.31 196.44C814.412 196.44 821.79 189.062 821.79 179.96C821.79 170.858 814.412 163.48 805.31 163.48C796.208 163.48 788.83 170.858 788.83 179.96C788.83 189.062 796.208 196.44 805.31 196.44Z"
       id="path1240"
       fill="white" />
    <path
       d="M1429.59 162.91C1446.2 162.91 1459.67 149.443 1459.67 132.83C1459.67 116.217 1446.2 102.75 1429.59 102.75C1412.98 102.75 1399.51 116.217 1399.51 132.83C1399.51 149.443 1412.98 162.91 1429.59 162.91Z"
       id="path1242"
       fill="white" />
    <path
       d="M1395.32 148.75C1404.42 148.75 1411.8 141.372 1411.8 132.27C1411.8 123.168 1404.42 115.79 1395.32 115.79C1386.22 115.79 1378.84 123.168 1378.84 132.27C1378.84 141.372 1386.22 148.75 1395.32 148.75Z"
       id="path1244"
       fill="white" />
    <path
       d="M1103.16 267.76C1119.77 267.76 1133.24 254.293 1133.24 237.68C1133.24 221.067 1119.77 207.6 1103.16 207.6C1086.55 207.6 1073.08 221.067 1073.08 237.68C1073.08 254.293 1086.55 267.76 1103.16 267.76Z"
       id="path1246"
       fill="white" />
    <path
       d="M1135.82 258.02C1147.13 258.02 1156.3 248.851 1156.3 237.54C1156.3 226.229 1147.13 217.06 1135.82 217.06C1124.51 217.06 1115.34 226.229 1115.34 237.54C1115.34 248.851 1124.51 258.02 1135.82 258.02Z"
       id="path1248"
       fill="white" />
    <path
       d="M1068.89 253.6C1077.99 253.6 1085.37 246.222 1085.37 237.12C1085.37 228.018 1077.99 220.64 1068.89 220.64C1059.79 220.64 1052.41 228.018 1052.41 237.12C1052.41 246.222 1059.79 253.6 1068.89 253.6Z"
       id="path1250"
       fill="white" />
    <path
       d="M667.43 503.25C667.43 503.25 686.43 475.25 688.43 471.25C690.43 467.25 689.43 451.25 689.43 451.25H682.43C682.43 451.25 688.43 434.25 705.43 434.25C722.43 434.25 727.43 442.25 729.43 446.25C731.43 450.25 730.43 452.25 730.43 452.25H724.43V468.25L753.43 516.25H765.43V594.25C765.43 594.25 694.43 557.25 667.43 503.25Z"
       id="path1252"
       fill="#BAC6F2" />
    <path
       d="M734.43 574.25H748.43V554.25C748.43 554.25 741.43 543.25 734.43 554.25V574.25Z"
       id="path1254"
       fill="white" />
    <path
       d="M738.78 533.58C743.657 533.58 747.61 529.627 747.61 524.75C747.61 519.873 743.657 515.92 738.78 515.92C733.903 515.92 729.95 519.873 729.95 524.75C729.95 529.627 733.903 533.58 738.78 533.58Z"
       id="path1256"
       fill="#E9EDFA" />
    <path
       d="M673.22 514.08C677.169 511.299 682.621 512.207 685.455 516.119C688.289 520.031 687.453 525.494 683.58 528.38"
       id="path1258"
       fill="#E9EDFA" />
    <path
       d="M707.21 493.54C712.087 493.54 716.04 489.587 716.04 484.71C716.04 479.833 712.087 475.88 707.21 475.88C702.333 475.88 698.38 479.833 698.38 484.71C698.38 489.587 702.333 493.54 707.21 493.54Z"
       id="path1260"
       fill="#E9EDFA" />
    <path
       d="M692.53 517.66C692.573 515.375 693.403 513.174 694.88 511.43C697.689 507.941 701.856 505.82 706.33 505.6C715.63 505.35 719.71 513.17 720.28 516.37C721.14 521.2 720.95 545.52 720.95 545.52L699.18 545.4L692.36 538.25L692.53 517.66Z"
       id="path1262"
       fill="white" />
    <path
       d="M763.15 485.37L765.43 594.25C765.43 594.25 806.65 609.63 824.03 613.3C841.41 616.97 881.85 640.04 881.85 640.04L881.17 485.88L763.17 485.09"
       id="path1264"
       fill="#E9EDFA" />
    <path
       d="M762.31 485.37L881.17 485.87L880.63 457.46H845.43C845.43 457.46 841.06 440.46 824.67 440.46C804.56 440.46 801.21 458.36 801.21 458.36L762.21 457.95L762.31 485.37Z"
       id="path1266"
       fill="#BAC6F2" />
    <rect
       x="774.88"
       y="501.52"
       width="21.02"
       height="22.8"
       id="rect1268"
       fill="#BAC6F2" />
    <rect
       x="812.86"
       y="501.2"
       width="21.02"
       height="22.8"
       id="rect1270"
       fill="#BAC6F2" />
    <rect
       x="850.35"
       y="501.53"
       width="21.02"
       height="22.8"
       id="rect1272"
       fill="white" />
    <rect
       x="850.67"
       y="544.42"
       width="21.02"
       height="22.8"
       id="rect1274"
       fill="#BAC6F2" />
    <rect
       x="850.97"
       y="594.33"
       width="21.02"
       height="22.8"
       id="rect1276"
       fill="#BAC6F2" />
    <rect
       x="812.04"
       y="543.77"
       width="21.02"
       height="22.8"
       id="rect1278"
       fill="#BAC6F2" />
    <rect
       x="812.04"
       y="543.77"
       width="21.02"
       height="22.8"
       id="rect1280"
       fill="white" />
    <rect
       x="775.04"
       y="544.75"
       width="21.02"
       height="22.8"
       id="rect1282"
       fill="#BAC6F2" />
    <path
       d="M775.51 597.71L775.35 591.05L795.76 591.47L795.82 604.88C795.82 604.88 780.71 599.86 775.51 597.71Z"
       id="path1284"
       fill="#BAC6F2" />
    <path
       d="M813.17 610.26L812.87 593.28L833.56 593.71L833.1 615.92L813.17 610.26V610.26Z"
       id="path1286"
       fill="#BAC6F2" />
    <path
       d="M823.55 473.94C829.934 473.94 835.11 468.764 835.11 462.38C835.11 455.996 829.934 450.82 823.55 450.82C817.166 450.82 811.99 455.996 811.99 462.38C811.99 468.764 817.166 473.94 823.55 473.94Z"
       id="path1288"
       fill="white" />
    <path
       d="M880.82 561.78L881.82 640.05C881.82 640.05 944.1 681.49 948.04 684.45C951.98 687.41 984.55 703.2 999.36 704.19L1002.03 546.25L993.28 545.91L950.49 492.77L934.64 492.01L880.83 561.74"
       id="path1290"
       fill="#BAC6F2" />
    <path
       d="M880.82 561.78L934.69 494.11L940.64 494.33L947.44 494.73L951.19 495.12L993.28 545.96L1002.03 546.29V543.26L993.61 542.92L953.29 493.64L953.55 474.58L934.02 473.57L933.27 493.08L881.49 518.01L880.82 561.78V561.78Z"
       id="path1292"
       fill="#E9EDFA" />
    <rect
       x="915.01"
       y="547.1"
       width="9.8"
       height="11.46"
       id="rect1294"
       fill="white" />
    <rect
       x="958.22"
       y="547.19"
       width="9.8"
       height="11.46"
       id="rect1296"
       fill="white" />
    <rect
       x="942.32"
       y="547.16"
       width="9.8"
       height="11.46"
       id="rect1298"
       fill="white" />
    <rect
       x="929.31"
       y="547.07"
       width="9.8"
       height="11.46"
       id="rect1300"
       fill="white" />
    <rect
       x="915.02"
       y="564.62"
       width="9.8"
       height="11.46"
       id="rect1302"
       fill="white" />
    <rect
       x="958.23"
       y="564.71"
       width="9.8"
       height="11.46"
       id="rect1304"
       fill="white" />
    <rect
       x="942.34"
       y="564.69"
       width="9.8"
       height="11.46"
       id="rect1306"
       fill="white" />
    <rect
       x="929.33"
       y="564.6"
       width="9.8"
       height="11.46"
       id="rect1308"
       fill="white" />
    <rect
       x="891.77"
       y="616.39"
       width="9.8"
       height="11.46"
       id="rect1310"
       fill="white" />
    <rect
       x="904.5"
       y="603.21"
       width="9.8"
       height="11.46"
       id="rect1312"
       fill="white" />
    <rect
       x="891.49"
       y="603.12"
       width="9.8"
       height="11.46"
       id="rect1314"
       fill="white" />
    <rect
       x="904.63"
       y="616.5"
       width="9.8"
       height="11.46"
       id="rect1316"
       fill="white" />
    <rect
       x="930.16"
       y="616.66"
       width="9.8"
       height="11.46"
       id="rect1318"
       fill="white" />
    <rect
       x="942.88"
       y="603.48"
       width="9.8"
       height="11.46"
       id="rect1320"
       fill="white" />
    <rect
       x="929.87"
       y="603.39"
       width="9.8"
       height="11.46"
       id="rect1322"
       fill="white" />
    <rect
       x="943.01"
       y="616.77"
       width="9.8"
       height="11.46"
       id="rect1324"
       fill="white" />
    <rect
       x="967.32"
       y="617.04"
       width="9.8"
       height="11.46"
       id="rect1326"
       fill="white" />
    <rect
       x="980.04"
       y="603.85"
       width="9.8"
       height="11.46"
       id="rect1328"
       fill="white" />
    <rect
       x="967.03"
       y="603.76"
       width="9.8"
       height="11.46"
       id="rect1330"
       fill="white" />
    <rect
       x="980.17"
       y="617.15"
       width="9.8"
       height="11.46"
       id="rect1332"
       fill="white" />
    <rect
       x="966.8"
       y="672.99"
       width="9.8"
       height="16.35"
       id="rect1334"
       fill="white" />
    <rect
       x="979.53"
       y="659.8"
       width="9.8"
       height="11.46"
       id="rect1336"
       fill="white" />
    <rect
       x="966.52"
       y="659.72"
       width="9.8"
       height="11.46"
       id="rect1338"
       fill="white" />
    <rect
       x="940.96"
       y="659.48"
       width="9.8"
       height="11.46"
       id="rect1340"
       fill="white" />
    <path
       d="M950.85 686.15L941.06 679.78L941.01 673.49H950.81L950.85 686.15V686.15Z"
       id="path1342"
       fill="white" />
    <rect
       x="927.95"
       y="659.39"
       width="9.8"
       height="11.46"
       id="rect1344"
       fill="white" />
    <path
       d="M937.7 677.38L935.21 675.66L931.13 672.97L937.68 672.99L937.7 677.38V677.38Z"
       id="path1346"
       fill="white" />
    <rect
       x="979.66"
       y="673.1"
       width="9.8"
       height="16.28"
       id="rect1348"
       fill="white" />
    <path
       d="M1052.75 441.96H1071.22L1070.94 432.95L1052.45 432.76L1052.75 441.96V441.96Z"
       id="path1350"
       fill="#BAC6F2" />
    <path
       d="M1001.2 526.49L999.43 704.18C999.43 704.18 1031.17 709.07 1059.72 701.86C1088.27 694.65 1121.33 686.86 1121.33 686.86L1122.43 528.18L1103.21 518.74L1072.03 463.54L1071.26 441.96H1052.76L1052.17 463.54L1019.32 517.77L1001.2 526.49Z"
       id="path1352"
       fill="#E9EDFA" />
    <rect
       x="1048.66"
       y="541.73"
       width="12.12"
       height="15.08"
       id="rect1354"
       fill="#BAC6F2" />
    <rect
       x="1065.09"
       y="542"
       width="12.93"
       height="14.81"
       id="rect1356"
       fill="#BAC6F2" />
    <rect
       x="1048.39"
       y="559.63"
       width="12.12"
       height="15.08"
       id="rect1358"
       fill="#BAC6F2" />
    <rect
       x="1064.82"
       y="559.9"
       width="12.93"
       height="14.81"
       id="rect1360"
       fill="#BAC6F2" />
    <rect
       x="1048.92"
       y="595.56"
       width="12.12"
       height="15.08"
       id="rect1362"
       fill="#BAC6F2" />
    <rect
       x="1020.36"
       y="595.47"
       width="12.12"
       height="15.08"
       id="rect1364"
       fill="#BAC6F2" />
    <rect
       x="1092.04"
       y="596.14"
       width="12.12"
       height="15.08"
       id="rect1366"
       fill="#BAC6F2" />
    <rect
       x="1092.39"
       y="662.57"
       width="12.12"
       height="15.08"
       id="rect1368"
       fill="#BAC6F2" />
    <rect
       x="1020.5"
       y="663"
       width="12.12"
       height="15.08"
       id="rect1370"
       fill="#BAC6F2" />
    <rect
       x="1065.35"
       y="595.82"
       width="12.93"
       height="14.81"
       id="rect1372"
       fill="#BAC6F2" />
    <rect
       x="1048.65"
       y="613.46"
       width="12.12"
       height="15.08"
       id="rect1374"
       fill="#BAC6F2" />
    <rect
       x="1065.08"
       y="613.73"
       width="12.93"
       height="14.81"
       id="rect1376"
       fill="#BAC6F2" />
    <rect
       x="1048.7"
       y="660.91"
       width="12.12"
       height="15.08"
       id="rect1378"
       fill="#BAC6F2" />
    <rect
       x="1065.13"
       y="661.18"
       width="12.93"
       height="14.81"
       id="rect1380"
       fill="#BAC6F2" />
    <rect
       x="1048.43"
       y="678.82"
       width="12.12"
       height="15.08"
       id="rect1382"
       fill="#BAC6F2" />
    <rect
       x="1064.86"
       y="679.09"
       width="12.93"
       height="14.81"
       id="rect1384"
       fill="#BAC6F2" />
    <path
       d="M1027.09 566.96C1031.77 566.96 1035.56 563.168 1035.56 558.49C1035.56 553.812 1031.77 550.02 1027.09 550.02C1022.41 550.02 1018.62 553.812 1018.62 558.49C1018.62 563.168 1022.41 566.96 1027.09 566.96Z"
       id="path1386"
       fill="#BAC6F2" />
    <path
       d="M1095.78 568.84C1100.46 568.84 1104.25 565.048 1104.25 560.37C1104.25 555.692 1100.46 551.9 1095.78 551.9C1091.1 551.9 1087.31 555.692 1087.31 560.37C1087.31 565.048 1091.1 568.84 1095.78 568.84Z"
       id="path1388"
       fill="#BAC6F2" />
    <path
       d="M1001.2 526.49H1019.67L1019.38 517.48L1000.89 517.29L1001.2 526.49V526.49Z"
       id="path1390"
       fill="#BAC6F2" />
    <path
       d="M1103.93 528.18H1122.4L1122.11 519.17L1103.63 518.98L1103.93 528.18V528.18Z"
       id="path1392"
       fill="#BAC6F2" />
    <path
       d="M1062.67 522.13C1070.71 522.13 1077.23 515.611 1077.23 507.57C1077.23 499.529 1070.71 493.01 1062.67 493.01C1054.63 493.01 1048.11 499.529 1048.11 507.57C1048.11 515.611 1054.63 522.13 1062.67 522.13Z"
       id="path1394"
       fill="#BAC6F2" />
    <path
       d="M1114.77 528.94L1115.84 605.62C1115.84 605.62 1118.64 687.77 1118.91 687.5C1125.48 680.71 1226.99 673.78 1238.72 673.5L1235.99 513.5L1227.24 513.16L1184.43 459.98L1168.58 459.22L1114.77 528.95"
       id="path1396"
       fill="#BAC6F2" />
    <path
       d="M1114.77 528.94L1168.64 461.27L1174.59 461.5L1181.39 461.9L1185.14 462.28L1227.23 513.12L1235.98 513.46V510.43L1227.56 510.09L1187.24 460.8L1187.5 441.74L1167.97 440.73L1167.22 460.25L1114.81 519.12L1114.77 528.94V528.94Z"
       id="path1398"
       fill="#E9EDFA" />
    <rect
       x="1148.95"
       y="514.26"
       width="9.8"
       height="11.46"
       id="rect1400"
       fill="white" />
    <rect
       x="1192.17"
       y="514.36"
       width="9.8"
       height="11.46"
       id="rect1402"
       fill="white" />
    <rect
       x="1176.27"
       y="514.33"
       width="9.8"
       height="11.46"
       id="rect1404"
       fill="white" />
    <rect
       x="1163.26"
       y="514.24"
       width="9.8"
       height="11.46"
       id="rect1406"
       fill="white" />
    <rect
       x="1148.97"
       y="531.78"
       width="9.8"
       height="11.46"
       id="rect1408"
       fill="white" />
    <rect
       x="1192.18"
       y="531.88"
       width="9.8"
       height="11.46"
       id="rect1410"
       fill="white" />
    <rect
       x="1176.29"
       y="531.85"
       width="9.8"
       height="11.46"
       id="rect1412"
       fill="white" />
    <rect
       x="1163.28"
       y="531.76"
       width="9.8"
       height="11.46"
       id="rect1414"
       fill="white" />
    <rect
       x="1125.95"
       y="591.78"
       width="9.8"
       height="11.46"
       id="rect1416"
       fill="white" />
    <rect
       x="1138.67"
       y="578.6"
       width="9.8"
       height="11.46"
       id="rect1418"
       fill="white" />
    <rect
       x="1125.66"
       y="578.51"
       width="9.8"
       height="11.46"
       id="rect1420"
       fill="white" />
    <rect
       x="1138.8"
       y="591.89"
       width="9.8"
       height="11.46"
       id="rect1422"
       fill="white" />
    <rect
       x="1164.33"
       y="592.05"
       width="9.8"
       height="11.46"
       id="rect1424"
       fill="white" />
    <rect
       x="1177.06"
       y="578.87"
       width="9.8"
       height="11.46"
       id="rect1426"
       fill="white" />
    <rect
       x="1164.05"
       y="578.78"
       width="9.8"
       height="11.46"
       id="rect1428"
       fill="white" />
    <rect
       x="1177.19"
       y="592.16"
       width="9.8"
       height="11.46"
       id="rect1430"
       fill="white" />
    <rect
       x="1201.49"
       y="592.43"
       width="9.8"
       height="11.46"
       id="rect1432"
       fill="white" />
    <rect
       x="1214.22"
       y="579.24"
       width="9.8"
       height="11.46"
       id="rect1434"
       fill="white" />
    <rect
       x="1201.21"
       y="579.15"
       width="9.8"
       height="11.46"
       id="rect1436"
       fill="white" />
    <rect
       x="1214.35"
       y="592.54"
       width="9.8"
       height="11.46"
       id="rect1438"
       fill="white" />
    <rect
       x="1126.22"
       y="642.04"
       width="9.8"
       height="11.46"
       id="rect1440"
       fill="white" />
    <rect
       x="1138.94"
       y="628.85"
       width="9.8"
       height="11.46"
       id="rect1442"
       fill="white" />
    <rect
       x="1125.93"
       y="628.76"
       width="9.8"
       height="11.46"
       id="rect1444"
       fill="white" />
    <rect
       x="1139.07"
       y="642.14"
       width="9.8"
       height="11.46"
       id="rect1446"
       fill="white" />
    <rect
       x="1164.6"
       y="642.31"
       width="9.8"
       height="11.46"
       id="rect1448"
       fill="white" />
    <rect
       x="1177.33"
       y="629.12"
       width="9.8"
       height="11.46"
       id="rect1450"
       fill="white" />
    <rect
       x="1164.32"
       y="629.03"
       width="9.8"
       height="11.46"
       id="rect1452"
       fill="white" />
    <rect
       x="1177.46"
       y="642.41"
       width="9.8"
       height="11.46"
       id="rect1454"
       fill="white" />
    <rect
       x="1201.76"
       y="642.68"
       width="9.8"
       height="11.46"
       id="rect1456"
       fill="white" />
    <rect
       x="1214.49"
       y="629.5"
       width="9.8"
       height="11.46"
       id="rect1458"
       fill="white" />
    <rect
       x="1201.48"
       y="629.41"
       width="9.8"
       height="11.46"
       id="rect1460"
       fill="white" />
    <rect
       x="1214.62"
       y="642.79"
       width="9.8"
       height="11.46"
       id="rect1462"
       fill="white" />
    <path
       d="M1247.43 492.42C1247.43 492.42 1273.29 451.25 1275.29 447.25C1277.29 443.25 1276.29 427.25 1276.29 427.25H1269.29C1269.29 427.25 1275.29 410.25 1292.29 410.25C1309.29 410.25 1314.29 418.25 1316.29 422.25C1318.29 426.25 1317.29 428.25 1317.29 428.25H1311.29V444.25L1340.29 492.25H1352.29L1356.23 677.16C1356.23 677.16 1242.16 671.81 1239.75 673.42C1239 673.92 1239.06 668.69 1238.94 667.78C1238.44 663.88 1234.17 522.43 1236.32 492.59C1236.32 492.62 1247.51 492.41 1247.43 492.42Z"
       id="path1464"
       fill="#E9EDFA" />
    <path
       d="M1320.81 550.73H1334.81V530.73C1334.81 530.73 1327.81 519.73 1320.81 530.73V550.73Z"
       id="path1466"
       fill="white" />
    <path
       d="M1253.58 552.34H1267.58V532.34C1267.58 532.34 1260.58 521.34 1253.58 532.34V552.34Z"
       id="path1468"
       fill="white" />
    <path
       d="M1253.58 603.97H1267.58V583.97C1267.58 583.97 1260.58 572.97 1253.58 583.97V603.97Z"
       id="path1470"
       fill="white" />
    <path
       d="M1287.01 604.57H1301.01V584.57C1301.01 584.57 1294.01 573.57 1287.01 584.57V604.57Z"
       id="path1472"
       fill="white" />
    <path
       d="M1320.43 605.17H1334.43V585.17C1334.43 585.17 1327.43 574.17 1320.43 585.17V605.17Z"
       id="path1474"
       fill="white" />
    <path
       d="M1254.43 653.37H1268.43V633.37C1268.43 633.37 1261.43 622.37 1254.43 633.37V653.37Z"
       id="path1476"
       fill="white" />
    <path
       d="M1287.87 653.97H1301.87V633.97C1301.87 633.97 1294.87 622.97 1287.87 633.97V653.97Z"
       id="path1478"
       fill="white" />
    <path
       d="M1321.31 654.58H1335.31V634.58C1335.31 634.58 1328.31 623.58 1321.31 634.58V654.58Z"
       id="path1480"
       fill="white" />
    <path
       d="M1325.16 510.05C1330.04 510.05 1333.99 506.097 1333.99 501.22C1333.99 496.343 1330.04 492.39 1325.16 492.39C1320.28 492.39 1316.33 496.343 1316.33 501.22C1316.33 506.097 1320.28 510.05 1325.16 510.05Z"
       id="path1482"
       fill="#E9EDFA" />
    <path
       d="M1262.04 508.71C1266.92 508.71 1270.87 504.757 1270.87 499.88C1270.87 495.003 1266.92 491.05 1262.04 491.05C1257.16 491.05 1253.21 495.003 1253.21 499.88C1253.21 504.757 1257.16 508.71 1262.04 508.71Z"
       id="path1484"
       fill="#E9EDFA" />
    <path
       d="M1294.26 552.28C1299.14 552.28 1303.09 548.327 1303.09 543.45C1303.09 538.573 1299.14 534.62 1294.26 534.62C1289.38 534.62 1285.43 538.573 1285.43 543.45C1285.43 548.327 1289.38 552.28 1294.26 552.28Z"
       id="path1486"
       fill="#E9EDFA" />
    <path
       d="M1293.6 470.02C1298.48 470.02 1302.43 466.067 1302.43 461.19C1302.43 456.313 1298.48 452.36 1293.6 452.36C1288.72 452.36 1284.77 456.313 1284.77 461.19C1284.77 466.067 1288.72 470.02 1293.6 470.02Z"
       id="path1488"
       fill="#E9EDFA" />
    <path
       d="M1278.92 494.14C1278.96 491.855 1279.79 489.654 1281.27 487.91C1284.08 484.421 1288.25 482.3 1292.72 482.08C1302.02 481.83 1306.1 489.65 1306.67 492.85C1307.53 497.68 1307.34 522 1307.34 522H1278.6L1278.75 514.77L1278.92 494.14Z"
       id="path1490"
       fill="white" />
    <path
       d="M1352.79 527.16L1355.79 677.35C1355.79 677.35 1388.71 677.69 1408.86 680.2C1426.49 682.4 1468.86 680.37 1468.86 680.37L1470.86 527.67L1352.86 526.88"
       id="path1492"
       fill="#BAC6F2" />
    <path
       d="M1351.95 527.16L1470.81 527.66L1470.27 499.25H1435.06C1435.06 499.25 1430.69 482.25 1414.3 482.25C1394.19 482.25 1390.84 500.15 1390.84 500.15L1351.84 499.74L1351.95 527.16Z"
       id="path1494"
       fill="#BAC6F2" />
    <rect
       x="1364.52"
       y="543.31"
       width="21.02"
       height="22.8"
       id="rect1496"
       fill="white" />
    <rect
       x="1402.5"
       y="542.98"
       width="21.02"
       height="22.8"
       id="rect1498"
       fill="white" />
    <rect
       x="1439.99"
       y="543.31"
       width="21.02"
       height="22.8"
       id="rect1500"
       fill="white" />
    <rect
       x="1402.53"
       y="635.2"
       width="21.02"
       height="22.8"
       id="rect1502"
       fill="white" />
    <rect
       x="1364.53"
       y="634.73"
       width="21.02"
       height="22.8"
       id="rect1504"
       fill="white" />
    <rect
       x="1401.68"
       y="585.55"
       width="21.02"
       height="22.8"
       id="rect1506"
       fill="white" />
    <rect
       x="1401.68"
       y="585.55"
       width="21.02"
       height="22.8"
       id="rect1508"
       fill="white" />
    <rect
       x="1364.68"
       y="586.53"
       width="21.02"
       height="22.8"
       id="rect1510"
       fill="white" />
    <path
       d="M1413.19 515.72C1419.57 515.72 1424.75 510.544 1424.75 504.16C1424.75 497.776 1419.57 492.6 1413.19 492.6C1406.81 492.6 1401.63 497.776 1401.63 504.16C1401.63 510.544 1406.81 515.72 1413.19 515.72Z"
       id="path1512"
       fill="white" />
    <g
       id="g1518"
       filter="url(#filter0_d)" />
    <g
       clip-path="url(#clip1)"
       id="g1532" />
  </g>
  <defs
     id="defs1563">
    <filter
       id="filter0_d"
       x="100"
       y="567"
       width="249"
       height="88"
       filterUnits="userSpaceOnUse"
       color-interpolation-filters="sRGB">
      <feFlood
         flood-opacity="0"
         result="BackgroundImageFix"
         id="feFlood1542" />
      <feColorMatrix
         in="SourceAlpha"
         type="matrix"
         values="0 0 0 0 0 0 0 0 0 0 0 0 0 0 0 0 0 0 127 0"
         id="feColorMatrix1544" />
      <feOffset
         dy="13"
         id="feOffset1546" />
      <feGaussianBlur
         stdDeviation="10"
         id="feGaussianBlur1548" />
      <feColorMatrix
         type="matrix"
         values="0 0 0 0 0.46386 0 0 0 0 0.769184 0 0 0 0 0.490617 0 0 0 0.411204 0"
         id="feColorMatrix1550" />
      <feBlend
         mode="normal"
         in2="BackgroundImageFix"
         result="effect1_dropShadow"
         id="feBlend1552" />
      <feBlend
         mode="normal"
         in="SourceGraphic"
         in2="effect1_dropShadow"
         result="shape"
         id="feBlend1554" />
    </filter>
    <clipPath
       id="clip0">
      <rect
         width="1914"
         height="1108"
         fill="white"
         transform="translate(-36 -224)"
         id="rect1557" />
    </clipPath>
    <clipPath
       id="clip1">
      <rect
         width="714"
         height="19"
         fill="white"
         transform="translate(558 57)"
         id="rect1560" />
    </clipPath>
  </defs>
</svg>
