<?xml version="1.0" standalone="no"?>
<!DOCTYPE svg PUBLIC "-//W3C//DTD SVG 20010904//EN"
 "http://www.w3.org/TR/2001/REC-SVG-20010904/DTD/svg10.dtd">
<svg version="1.0" xmlns="http://www.w3.org/2000/svg"
 width="213.000000pt" height="237.000000pt" viewBox="0 0 213.000000 237.000000"
 preserveAspectRatio="xMidYMid meet">
<metadata>
Created by potrace 1.15, written by Peter Selinger 2001-2017
</metadata>
<g transform="translate(0.000000,237.000000) scale(0.100000,-0.100000)"
fill="#000000" stroke="none">
<path d="M40 2363 c-40 -14 -40 -14 -40 -652 0 -339 4 -621 8 -627 18 -27 56
-34 186 -34 110 0 137 3 151 16 12 12 13 19 4 30 -9 11 -44 14 -150 14 l-139
0 0 600 0 600 460 0 460 0 0 -335 0 -335 25 0 25 0 0 349 0 350 -22 15 c-20
14 -82 16 -488 15 -256 0 -472 -3 -480 -6z"/>
<path d="M1178 1569 c-90 -10 -169 -34 -253 -76 -77 -38 -105 -59 -105 -79 0
-29 27 -24 114 20 130 66 234 90 361 83 259 -14 469 -148 590 -379 98 -186
101 -439 6 -626 -17 -33 -35 -63 -40 -66 -8 -5 -22 47 -49 178 -8 44 -34 68
-53 49 -8 -8 -4 -44 16 -139 15 -71 31 -139 36 -151 16 -42 44 -38 185 28 125
58 152 78 138 100 -10 17 -45 9 -124 -31 -44 -22 -80 -36 -80 -31 0 6 4 12 9
15 19 12 71 180 83 266 33 254 -82 533 -285 686 -162 121 -356 176 -549 153z"/>
<path d="M1250 1315 c0 -47 -1 -48 -52 -59 -37 -8 -98 -63 -114 -103 -18 -42
-18 -125 0 -166 18 -43 101 -119 165 -152 61 -30 126 -87 147 -126 18 -36 18
-92 -1 -129 -32 -62 -142 -85 -202 -42 -34 24 -63 86 -63 132 0 28 -3 30 -35
30 l-35 0 0 -47 c1 -94 70 -186 150 -199 l40 -7 0 -48 c0 -46 2 -49 25 -49 23
0 25 3 25 50 0 44 3 50 20 50 59 0 141 71 160 138 32 117 -30 225 -179 306
-85 47 -138 97 -151 144 -31 113 81 199 190 144 40 -19 70 -71 70 -119 0 -31
2 -33 35 -33 35 0 35 0 35 45 0 25 -6 60 -14 78 -16 40 -77 95 -114 103 -51
11 -52 12 -52 59 0 41 -2 45 -25 45 -23 0 -25 -4 -25 -45z"/>
<path d="M528 1248 c-97 -46 -128 -66 -128 -80 0 -34 29 -30 134 20 l104 50
-34 -72 c-47 -101 -65 -175 -71 -296 -10 -218 61 -402 217 -561 230 -234 578
-291 870 -144 86 43 115 67 107 88 -9 23 -33 21 -68 -4 -47 -33 -150 -76 -226
-93 -155 -35 -311 -14 -462 60 -77 38 -109 62 -175 128 -90 90 -136 160 -172
265 -60 173 -51 358 27 529 16 36 31 63 34 61 2 -3 13 -47 25 -99 12 -52 26
-100 31 -106 16 -20 39 -5 39 25 0 48 -57 273 -71 282 -26 16 -54 8 -181 -53z"/>
</g>
</svg>
