<svg width="101" height="117" viewBox="0 0 101 117" fill="none" xmlns="http://www.w3.org/2000/svg">
<path fill-rule="evenodd" clip-rule="evenodd" d="M28.8849 57C28.8849 57 29.3986 57.4607 29.5757 57.8909C29.7164 58.231 30.1859 58.682 30.408 58.9393C30.6305 59.1966 31.4596 60.4007 31.578 60.7357C31.6262 60.873 31.5623 61.8192 31.6934 62.0878C31.8245 62.3567 32.1627 62.8712 31.9069 62.968C31.6511 63.0646 31.2112 62.6786 31.2112 62.6786C31.2112 62.6786 31.3144 62.9298 31.1183 63.0787C30.7373 63.3681 30.4537 63.2521 30.4537 63.2521C30.4537 63.2521 30.3778 63.5705 30.1859 63.6543C29.763 63.8384 29.4923 63.7189 29.4923 63.7189C29.4923 63.7189 29.3431 63.9218 29.0315 63.9854C28.6333 64.0667 28.369 63.7824 28.369 63.7824C28.369 63.7824 27.8963 63.9904 27.6842 63.8034C27.4719 63.6157 27.4259 63.3757 27.3053 63.1902C27.1845 63.004 26.6844 61.1944 26.942 59.7533C27.1998 58.3124 26 57.2318 26 57.2318L28.8849 57Z" fill="#EEA886"/>
<path fill-rule="evenodd" clip-rule="evenodd" d="M25.346 62.8662C25.1017 62.8662 24.9033 63.0563 24.9033 63.2906V67.7088C24.9033 67.9431 25.1017 68.1338 25.346 68.1338H32.6542C32.8983 68.1338 33.0969 67.9431 33.0969 67.7088V63.2906C33.0969 63.0563 32.8983 62.8662 32.6542 62.8662H25.346ZM32.6542 69H25.346C24.6038 69 24 68.421 24 67.7088V63.2906C24 62.5788 24.6038 62 25.346 62H32.6542C33.3963 62 34 62.5788 34 63.2906V67.7088C34 68.421 33.3963 69 32.6542 69V69Z" fill="#0E1E2B"/>
<path fill-rule="evenodd" clip-rule="evenodd" d="M17 84H42V66H17V84Z" fill="#54281A"/>
<path fill-rule="evenodd" clip-rule="evenodd" d="M18.8897 20C18.8897 20 17.6704 20.0182 17.1505 23.7762C16.6303 27.5338 17.616 29.1044 17.7331 30.6684C17.8506 32.2325 19.6305 42.3323 19.6787 42.7791C19.727 43.2252 19.9658 48.6003 20.6598 50.027C21.3536 51.4533 26.4549 59.5374 26.5231 59.9414C26.5915 60.3449 29 58.5329 29 58.5329C29 58.5329 24.9922 49.886 24.7599 48.899C24.5274 47.912 22.9145 42.8742 23.1696 41.3363C23.4246 39.7979 22.4552 31.3144 22.549 30.3703C22.6428 29.426 21.226 20.5739 18.8897 20" fill="#EEA886"/>
<path fill-rule="evenodd" clip-rule="evenodd" d="M18.9123 20C18.9123 20 17.7298 20.0182 17.2257 23.7818C16.7212 27.5449 17.1772 28.9 17.4821 30.5316C17.7701 32.0723 18.7509 41.4961 18.7979 41.9435C18.8448 42.3908 20.0186 48.0725 20.6289 50.0713C21.0929 51.5906 25.5042 59.5476 25.5705 59.9516C25.6367 60.3561 29 58.0925 29 58.0925C29 58.0925 24.687 49.1353 24.4615 48.1469C24.236 47.159 23.5058 43.7383 23.4825 42.1757C23.4548 40.3403 22.3701 31.3311 22.4611 30.3856C22.5521 29.4399 22.2118 21.2875 18.9123 20" fill="#285173"/>
<path fill-rule="evenodd" clip-rule="evenodd" d="M31.9356 62.7103C31.9356 62.7103 31.3031 61.3703 30.5124 61.1702C29.7219 60.9701 29.8997 61.4605 29.8997 61.4605C29.8997 61.4605 29.7388 60.9738 29.0027 61.0011C28.2672 61.028 28.5323 61.5964 28.5323 61.5964C28.5323 61.5964 28.226 61.2452 27.5277 61.416C26.829 61.5876 27.249 62.032 27.249 62.032C27.249 62.032 26.3052 61.6653 26.0779 62.1654C25.6946 63.009 26.8501 63.7894 26.8501 63.7894C26.8501 63.7894 27.212 64.0042 27.8626 63.8141C27.8626 63.8141 28.629 64.2668 29.4854 63.7592C29.4854 63.7592 30.7607 63.94 30.8819 63.3719C30.8819 63.3719 32.3167 63.4643 31.9356 62.7103" fill="#DB9C7C"/>
<path fill-rule="evenodd" clip-rule="evenodd" d="M33.8239 112.522C33.8239 112.522 36.309 116.005 35.9678 116.556C35.6271 117.108 33.0138 117.187 31.4232 116.556C29.8326 115.926 29.7946 111.844 29.0751 110.091C28.7737 109.357 29.4182 107.19 30.3248 107.033C31.2314 106.876 32.2172 107.337 32.2172 107.337C32.2172 107.337 31.2769 109.807 33.8239 112.522" fill="#1D3B54"/>
<path fill-rule="evenodd" clip-rule="evenodd" d="M33.0455 105.38C33.0455 105.38 33.6862 106.949 33.92 108.448C34.1143 109.691 36.0897 112.33 35.9968 112.664C35.9041 112.998 33.3978 113.3 32.3767 112.439C31.3555 111.579 30.6985 109.076 30.4736 107.579C30.2641 106.185 30 105.496 30 105.496C30 105.496 32.0705 104.462 33.0455 105.38" fill="#EEA886"/>
<path fill-rule="evenodd" clip-rule="evenodd" d="M9.9125 112.579C9.9125 112.579 12.3076 116.004 11.9668 116.556C11.6258 117.108 9.01305 117.187 7.42269 116.556C5.83246 115.925 5.79446 111.843 5.07502 110.09C4.77369 109.355 5.41839 107.188 6.32454 107.031C7.23093 106.874 8.29361 107.369 8.29361 107.369C8.29361 107.369 7.36626 109.864 9.9125 112.579" fill="#1D3B54"/>
<path fill-rule="evenodd" clip-rule="evenodd" d="M8.88169 105.521C8.88169 105.521 9.13292 107.215 9.53488 108.413C9.93702 109.611 12.0973 112.337 11.9966 112.667C11.8961 112.998 9.18333 113.297 8.07792 112.445C6.97268 111.594 6.11884 109.127 6.01801 107.634C5.91768 106.141 6.26924 105.168 6.26924 105.168C6.26924 105.168 7.82669 104.613 8.88169 105.521" fill="#EEA886"/>
<path fill-rule="evenodd" clip-rule="evenodd" d="M21.6654 47.8374C21.6654 47.8374 23.9052 58.5879 24.4196 61.2947C24.9341 64.0014 26.3746 77.1108 26.529 79.3402C26.6831 81.5691 28.8663 89.9682 28.7633 90.7641C28.6604 91.5605 32 107.553 32 107.553C32 107.553 30.8594 108.5 29.6572 107.638C29.0389 107.195 22.3302 92.6664 22.3302 88.6859C22.3302 83.1837 18.3072 76.178 17.7984 74.9476C13.0711 63.5118 14.0808 59.8381 13.4638 59.0951C12.8463 58.3523 12.7927 59.5543 12.4326 61.1995C12.0725 62.8448 11.3013 77.069 10.8384 78.8729C10.3755 80.6775 10.7351 86.7815 10.4778 89.8593C10.2206 92.9375 9.0911 106.862 9.0911 106.862C9.0911 106.862 8.21667 108.276 6.98957 106.899C6.7255 106.603 4.87106 91.3878 4.81947 87.726C4.768 84.0635 4.71336 79.0136 4.61389 77.4293C3.66054 62.2541 1.31828 60.0862 5.00754 49.3463C11.9155 29.2367 21.6654 47.8374 21.6654 47.8374" fill="#EEA886"/>
<path fill-rule="evenodd" clip-rule="evenodd" d="M5.51364 44.0009C5.51364 44.0009 -1.1524 53.118 1.71751 72.5136C1.71751 72.5136 17.5291 74.6149 26 70.0823C26 70.0823 22.4971 50.0854 21.2279 46.9738C19.9585 43.8624 5.51364 44.0009 5.51364 44.0009" fill="#1D3B54"/>
<path fill-rule="evenodd" clip-rule="evenodd" d="M29 109V112H30V109.681L29 109Z" fill="#1D3B54"/>
<path fill-rule="evenodd" clip-rule="evenodd" d="M5 109V112H6V109.681L5 109Z" fill="#1D3B54"/>
<path fill-rule="evenodd" clip-rule="evenodd" d="M13.9153 18.125C13.9153 18.125 16.3143 19.2507 17.1471 19.4169C17.9802 19.5818 21.212 23.7551 21.7785 25.2791C22.3448 26.8026 21.7785 29.0881 20.6122 31.7711C19.4461 34.4539 20.5456 35.3484 20.0125 38.0312C19.4793 40.714 19.0129 46.3945 19.1127 47.8849C19.2129 49.3753 5.63693 49.6565 2.53843 46.9406C2.53843 46.9406 5.65249 42.3038 6.05239 41.6416C6.45242 40.9789 6.1191 37.3684 5.75277 36.4415C5.38616 35.5139 2.94699 27.6272 2.94699 27.6272C2.94699 27.6272 0.95142 21.5698 2.75401 20.1783C4.3199 18.969 8.58778 18.5381 9.35401 18.2733C10.1202 18.0084 12.3495 17.8927 13.9153 18.125" fill="#EDDAD3"/>
<path fill-rule="evenodd" clip-rule="evenodd" d="M16.0915 24L18 22.3482L16.3431 18C16.3431 18 15.7862 20.4212 16.0915 24" fill="#D6C5BE"/>
<path fill-rule="evenodd" clip-rule="evenodd" d="M12.4241 0.456987C13.7509 -0.0831782 18.6267 -1.40889 19.7743 5.80239C20.9217 13.013 17.4792 18.1431 14.3159 16.78C11.1525 15.4167 9.19858 10.4299 9.01252 6.62714C8.82646 2.82485 10.7493 1.13835 12.4241 0.456987" fill="#EEA886"/>
<path fill-rule="evenodd" clip-rule="evenodd" d="M19.9983 5.42267C19.9983 5.42267 20.2489 0.188586 14.6835 0.00564552C9.118 -0.176924 7.62099 4.10735 8.07668 7.22995C8.53223 10.3525 10.836 12 10.836 12C10.836 12 10.636 9.47332 11.7158 8.81708C12.7959 8.16134 17.1246 6.85282 19.0122 3.80995C19.0122 3.80995 19.887 4.76989 19.9983 5.42267" fill="#252E3B"/>
<path fill-rule="evenodd" clip-rule="evenodd" d="M11.9949 5.80885C12.1055 8.5681 10.4066 10.8911 8.20017 10.9963C5.99398 11.1021 4.11583 8.95039 4.00511 6.19176C3.89453 3.43251 5.5935 1.11015 7.79955 1.00373C10.006 0.898084 11.8843 3.0496 11.9949 5.80885" fill="#252E3B"/>
<path fill-rule="evenodd" clip-rule="evenodd" d="M17 15.3878C17 15.3878 16.4967 19.9281 16.6017 21.4062C16.6017 21.4062 13.9809 23.9839 11 18.3981C11 18.3981 12.2542 16.0958 11.3102 12.9586C10.3661 9.82177 17 15.3878 17 15.3878" fill="#EEA886"/>
<path fill-rule="evenodd" clip-rule="evenodd" d="M17 20V22L15 20.1218L17 20Z" fill="#EEA886"/>
<path fill-rule="evenodd" clip-rule="evenodd" d="M16 24L14.7175 22.3836L10.3975 18L9 19.37L16 24Z" fill="#D6C5BE"/>
<path fill-rule="evenodd" clip-rule="evenodd" d="M9.67051 19C9.67051 19 12.8368 24.0958 12.9882 26.3384C13.1394 28.5811 11.8112 45.3583 10.7478 50.7515C9.68439 56.144 2 50.1431 2 50.1431C2 50.1431 7.16395 41.28 5.18173 34.183C3.19964 27.0865 2.47904 24.2487 2.47904 24.2487C2.47904 24.2487 3.16108 20.2968 5.57805 19.7407C7.69682 19.253 9.67051 19 9.67051 19" fill="#285173"/>
<path fill-rule="evenodd" clip-rule="evenodd" d="M23.9342 26.1973C23.9342 26.1973 24.5059 28.3787 22.2791 33.2008C22.2791 33.2008 22.3144 39.3715 22.377 41.2991C22.4401 43.2272 23.7038 50.1588 23.7038 50.1588L20.6613 51.9067C20.2174 52.1868 19.6681 51.7982 19.73 51.2477C20.3538 45.7 22.3825 24.6561 18 19L19.7587 19.5587C19.7587 19.5587 22.8831 22.3164 23.9342 26.1973" fill="#285173"/>
<path fill-rule="evenodd" clip-rule="evenodd" d="M12.5115 8.45438C12.3264 8.00085 11.7078 7.87354 11.3503 8.13272C10.9932 8.39143 10.7847 9.1679 11.3503 10.1745C11.916 11.1809 13.9109 11.8822 12.5115 8.45438" fill="#EEA886"/>
<path fill-rule="evenodd" clip-rule="evenodd" d="M18.2239 22.3911L20 23L17 17L18.2239 22.3911Z" fill="#FAE6DE"/>
<path fill-rule="evenodd" clip-rule="evenodd" d="M16 21.871L14.0283 24L10 18.4392L11.2844 18L16 21.871Z" fill="#FAE6DE"/>
<path fill-rule="evenodd" clip-rule="evenodd" d="M17 16.3679L16.8866 16.9893C16.8866 16.9893 14.3406 17.2663 11 15C11 15 13.3678 16.6062 17 16.3679" fill="#A77860"/>
<path fill-rule="evenodd" clip-rule="evenodd" d="M21.9586 32C21.9586 32 22.3508 40.0957 20.722 44L20 33.2718L21.9586 32Z" fill="#1D3B54"/>
<path fill-rule="evenodd" clip-rule="evenodd" d="M18 40C18 40 18.7975 38.6143 18.6338 38.2947C18.4701 37.975 19.6352 37.7483 19.7826 38.5356C19.93 39.323 20 39.8226 20 39.8226L18 40Z" fill="#EEA886"/>
<path fill-rule="evenodd" clip-rule="evenodd" d="M23.3483 46H18.7228L18 36H24L23.3483 46Z" fill="#8E4F3A"/>
<path fill-rule="evenodd" clip-rule="evenodd" d="M15.3399 40.6217C15.3399 40.6217 15.3055 39.9239 16.6796 39.3419C18.5049 38.5688 20.9293 37.8055 21.3283 38.0446C21.9021 38.3875 21.5817 38.8172 20.4348 39.1414C19.2882 39.4655 18.9098 39.5684 18.9098 39.5684C18.9098 39.5684 21.1322 39.4485 21.6178 39.731C22.1033 40.014 22.1064 40.6195 21.7393 40.7047C21.3722 40.7898 20.5145 40.8151 20.5145 40.8151C20.5145 40.8151 21.4516 40.8883 21.53 41.2657C21.5883 41.5448 21.606 41.9416 20.7104 42.0696C20.7104 42.0696 21.2869 42.756 20.3649 43.1439C19.4431 43.5313 17.7918 43.8528 16.9638 43.9533C15.2438 44.1615 12 43.6055 12 43.6055L13.0867 41.2075C13.0867 41.2075 14.0079 41.4795 14.6301 41.2383C15.4373 40.9256 15.3399 40.6217 15.3399 40.6217" fill="#EEA886"/>
<path fill-rule="evenodd" clip-rule="evenodd" d="M6.1246 20.0578C5.30635 19.7895 2.928 20.4083 2.52203 22.9064C2.11618 25.404 1.95356 28.1767 1.57476 29.5215C1.19582 30.8661 -0.603823 37.7053 0.208123 38.1988C1.0202 38.6933 2.68124 39.2244 4.59101 40.2414C6.4194 41.2144 15.3082 45 15.3082 45L16 41.0224C16 41.0224 14.295 40.6107 12.7522 39.8426C11.2097 39.0735 7.4823 36.8858 4.64049 35.1017C4.64049 35.1017 6.4194 30.2624 6.79833 29.2193C7.17727 28.1767 9.80513 21.2658 6.1246 20.0578" fill="#285173"/>
<path fill-rule="evenodd" clip-rule="evenodd" d="M18 38H24V36H18V38Z" fill="#AD9F9A"/>
<path fill-rule="evenodd" clip-rule="evenodd" d="M14 7C14 7 12.6622 9.03561 13.0918 10.3318C13.5736 11.7863 12 14 12 14C12 14 12.7232 11.3258 12.2101 10.3644C11.6975 9.40329 12.2956 7.90094 12.2956 7.90094L14 7Z" fill="#252E3B"/>
<path fill-rule="evenodd" clip-rule="evenodd" d="M88.1013 109C88.1013 109 88.9097 110.509 89.4379 111.108C89.9659 111.707 91.9889 112.777 92 114.556C92.0119 116.485 88.5897 115.949 87.2516 115.879C85.9135 115.809 85.812 114.778 85.2482 113.686C84.6849 112.594 84.1171 112.779 84.0117 111.898C83.9057 111.017 84.5568 109 84.5568 109H88.1013Z" fill="#202338"/>
<path fill-rule="evenodd" clip-rule="evenodd" d="M67.0107 109.343C67.0107 109.343 65.4071 111.278 63.779 111.684C62.1512 112.09 61.0123 112.608 61 113.719C60.9879 114.829 65.685 115.562 67.5481 114.441C70.3285 112.77 70.6114 113.274 70.9195 112.438C71.2279 111.603 70.5494 109.368 70.5694 109.102C70.5941 108.774 67.0107 109.343 67.0107 109.343" fill="#202338"/>
<path fill-rule="evenodd" clip-rule="evenodd" d="M67.1544 107.667C67.1544 107.667 66.9762 108.774 67.0027 108.798C67.0292 108.82 70.0905 109.393 69.9979 108.504C69.9229 107.783 69.8155 107 69.8155 107L67.1544 107.667Z" fill="#81807E"/>
<path fill-rule="evenodd" clip-rule="evenodd" d="M84.103 107.437C84.103 107.437 83.9788 108.549 84.0032 108.575C84.0272 108.602 87.0167 109.51 86.9999 108.587C86.9863 107.854 86.7241 107 86.7241 107L84.103 107.437Z" fill="#81807E"/>
<path fill-rule="evenodd" clip-rule="evenodd" d="M70.2797 52.27C70.2797 52.27 68.8101 66.4818 68.0459 71.3468C67.1524 77.0357 66.8495 81.7353 66.6004 84.6797C66.287 88.3831 66.2264 106.599 66.0069 107.682C65.7876 108.764 70.8742 107.981 70.8742 107.981C70.8742 107.981 73.3765 84.1792 74.3101 80.2352C75.1794 76.5633 78.4052 60.753 79.1982 61.7557C79.9917 62.759 80.9752 80.2055 81.5625 83.1018C82.1498 85.9981 83.936 108.672 83.936 108.672C83.936 108.672 87.9847 109.475 89.061 108.567C89.061 108.567 89.5511 89.0268 89.1772 83.5975C89.0345 81.5277 91.6116 58.7853 88.3071 49.6294C86.5604 44.7908 70.2797 52.27 70.2797 52.27" fill="#292C47"/>
<path fill-rule="evenodd" clip-rule="evenodd" d="M83.9279 49.4571C83.9279 49.4571 82.9813 48.0236 81.9798 47.8393C80.9768 47.655 95.7884 40.4806 95.7491 37.9175C95.7187 35.8392 90.4154 32.3904 90.4154 32.3904C90.4154 32.3904 90.4154 32.3935 90.414 32.3992C90.4118 32.4009 90.4118 32.4041 90.4118 32.4056C90.4118 32.4088 90.4102 32.4119 90.4102 32.4146C90.298 32.8262 88.7663 38.5214 88.7127 41.2577C88.6567 44.098 88.8821 53.868 88.8821 53.868L85.0856 54.8867L72.9593 55L70.1916 53.868C70.1916 53.868 70.494 50.7268 70.6064 48.5203C70.6763 47.1179 70.9484 44.6068 70.8784 42.1609C70.8784 42.1609 70.9227 39.5827 70.6672 38.4726C70.64 33.5724 70.3436 28.719 70.3436 28.719C70.1792 26.4972 70.0653 24.4199 70 22.4812C70.5349 22.1977 71.178 21.8658 71.6932 21.6212C73.2861 20.8609 75.5051 19.8374 76.9292 19.1831C77.7636 18.7988 78.5799 18.5189 78.5799 18.5189C78.5799 18.5189 84.2717 17.9722 84.7339 18.0011C84.8796 18.0105 85.5908 18.2584 86.5242 18.615C88.5425 19.3822 92.4333 20.9449 93.0538 21.3906C93.9625 22.0429 99.9119 37.8131 99.9989 38.8974C100.155 40.8512 83.9279 49.4571 83.9279 49.4571" fill="#DBD8E3"/>
<path fill-rule="evenodd" clip-rule="evenodd" d="M69.3656 53C69.3656 53 77.7004 53.5167 85 53V54.7446C85 54.7446 74.1294 55.5003 69 54.4119L69.3656 53Z" fill="#1D2033"/>
<path fill-rule="evenodd" clip-rule="evenodd" d="M69.1081 21.6328C69.1729 23.6334 69.2694 25.7791 69.439 28.0766C69.439 28.0766 69.5984 33.6866 69.92 39.0082C70.0293 39.7705 70.0844 40.5498 70.0229 41.3479C69.943 42.3879 69.8305 43.5238 69.6952 44.7098C69.6937 44.7254 69.6921 44.7408 69.6907 44.7547C69.6584 45.0361 69.6245 45.3191 69.5908 45.6049C69.5908 45.6097 69.5891 45.6129 69.5891 45.6177C68.872 51.5465 67.6576 58.3484 67.0238 60.4061C66.8898 60.8357 67.3514 61.2333 67.681 61.5389L69.9877 63C69.9877 63 70.9386 54.2054 71.254 51.2198C71.5588 48.3379 72.5178 44.4754 72.9376 40.7103V40.7092C73.4701 35.9335 74.2033 31.2547 74.5986 28.4754C75.6283 21.2383 77 18 77 18C76.3444 18.1972 69.1081 21.6328 69.1081 21.6328" fill="#323657"/>
<path fill-rule="evenodd" clip-rule="evenodd" d="M93.8439 36.9401C94.8519 39.1153 84.5935 42.9926 84.8245 43.5294C85.3796 44.8167 87.6431 47.4393 87.6431 47.4393C87.6431 47.4393 101.15 40.8642 100.999 39.3732C100.889 38.2874 94.561 21.8772 93.6338 21.224C93.0991 20.8452 89.1318 19.4615 87.1853 18.7063C86.8298 18.5684 85.6154 18.119 85.2962 18C84.8833 18.452 82.0375 21.5431 81.0321 33.2228C80.8632 35.1912 81.3979 39.36 81.7551 42.762C82.1365 46.3924 82.5584 49.2251 82.8673 52.2608C83.4775 58.2412 83.9037 63 83.9037 63L89.9511 60.3506C90.9296 59.8685 92.622 58.6106 92.2542 57.5964C90.8558 53.7428 88.7581 46.4383 88.7559 43.0563C88.7559 43.0563 89.7452 33.7244 90.2794 31.9044C90.2794 31.9044 92.7167 34.5074 93.8439 36.9401" fill="#323657"/>
<path fill-rule="evenodd" clip-rule="evenodd" d="M83.1253 17.9847C83.1253 17.9847 83.1678 16.0647 83.9949 12.1813C84.2157 11.1411 77.2525 14.917 77.2525 14.917C77.2525 14.917 77.2739 15.2809 77.2882 15.7727C77.2957 16.0327 77.3002 16.3267 77.298 16.6228C77.2974 16.7268 77.2963 16.8308 77.2935 16.9332C77.2871 17.2082 77.2733 17.4713 77.2468 17.6949C77.2209 17.9255 77.0688 18.3323 77.0145 18.444C76.7275 19.0366 80.7804 19.4872 83.1253 17.9847" fill="#EEA987"/>
<path fill-rule="evenodd" clip-rule="evenodd" d="M80.2298 20L79 21.525C79 21.525 79.7206 22.4154 81 21.7581L80.2298 20Z" fill="#E8734D"/>
<path fill-rule="evenodd" clip-rule="evenodd" d="M79.7424 21.0375C79.7424 21.0375 73.9725 36.5429 75.1614 48.6122L77.1029 51L78.9207 48.4984C78.9207 48.4984 79.4179 26.91 81 21L79.7424 21.0375Z" fill="#E8734D"/>
<path fill-rule="evenodd" clip-rule="evenodd" d="M80 18.468L80.9619 20C80.9619 20 82.5056 19.5924 82.9586 18.4948C83.4115 17.3973 80 18.468 80 18.468" fill="#EEA987"/>
<path fill-rule="evenodd" clip-rule="evenodd" d="M78.6874 17C78.6874 17 78.8112 18.3987 80 20.4404L78.7023 23L78 17.6895L78.6874 17Z" fill="#C4C1CC"/>
<path fill-rule="evenodd" clip-rule="evenodd" d="M84.1737 16C84.1737 16 81.3164 19.0212 79 19.7834L80.0775 22L85 17.05L84.1737 16Z" fill="#C4C1CC"/>
<path fill-rule="evenodd" clip-rule="evenodd" d="M45.1792 38C45.1792 38 41.0529 38.6306 40.821 38.9763C40.5892 39.3227 40.6442 39.6157 41.033 39.5777C41.4217 39.5404 45.0413 39.1207 45.0413 39.1207C45.0413 39.1207 40.3108 40.9513 40.0704 41.1764C39.9294 41.3079 40.0106 41.8814 40.2215 41.8863C40.4325 41.8916 45.2191 40.436 45.2191 40.436C45.2191 40.436 40.8053 42.1553 40.6513 42.4266C40.5169 42.6631 40.6909 43.1743 41.0265 43.0767C41.3621 42.979 45.5441 41.6922 45.5441 41.6922C45.5441 41.6922 42.406 43.2144 42.3845 43.5533C42.3717 43.7602 42.4242 44.2592 43.2227 43.8326C44.0213 43.4056 46 42.6659 46 42.6659L45.1792 38Z" fill="#EEA886"/>
<path fill-rule="evenodd" clip-rule="evenodd" d="M52 39.2263C52 39.2263 50.4583 39.3063 49.987 38.5274C49.5863 37.8655 48.6074 37.2646 48.3062 37.0796C47.9034 36.8319 46.9205 35.6306 46.6365 36.1132C46.3522 36.5958 48.1666 38.1643 48.486 38.5651C48.8058 38.9647 46.5836 38.8186 46.1783 39.1097C45.7731 39.4003 45.9936 43.0737 47.518 42.9989C49.0426 42.924 50.5516 41.8353 50.826 41.8754C51.1006 41.9159 51.9405 41.865 51.9405 41.865L52 39.2263Z" fill="#EEA886"/>
<path fill-rule="evenodd" clip-rule="evenodd" d="M49.8679 42C49.8679 42 60.6906 40.5505 63.0926 39.9858C64.2031 39.7244 65.6655 38.2585 67.0556 36.5343C67.5137 35.967 67.963 35.3711 68.3905 34.7816C68.3917 34.7805 68.3917 34.7794 68.3917 34.7794C70.0969 32.4244 71.4331 30.1679 71.4331 30.1679C71.4331 30.1679 76.4731 24.5186 72.4287 22.0006C72.4287 22.0006 70.695 21.9645 69.7444 22.4584C68.767 22.9659 66.6815 27.1286 66.3279 27.8653C65.9746 28.6015 62.1442 35.4479 61.8877 35.6018C61.6313 35.7553 57.8087 36.5497 56.1047 36.8899C53.6368 37.3826 49 38.3029 49 38.3029L49.8679 42Z" fill="#323657"/>
<path fill-rule="evenodd" clip-rule="evenodd" d="M76 56H79V53H76V56Z" fill="#3A4066"/>
<path fill-rule="evenodd" clip-rule="evenodd" d="M82.225 50C82.225 50 82.7236 49.9801 82.937 49.8653C82.937 49.8653 83.31 49.6272 83.5849 49.4737C83.6723 49.4253 83.75 49.385 83.8028 49.3646C84.0227 49.2776 84.5316 49.1519 85.0011 48.7952C85.4707 48.4391 87 47.0131 87 47.0131L86.0112 45.4991L85.5547 44C85.5547 44 81.9894 44.3535 81.5134 44.6348C81.4671 44.6629 81.4224 44.6913 81.3825 44.7224C81.003 44.9996 80.8368 45.3648 80.6547 45.533C80.5879 45.5953 79.9669 46.2574 80.0014 46.526C80.0493 46.8993 80.2342 47.1384 80.4666 47.2517C80.4666 47.2517 80.5922 47.9784 80.9689 48.3022C80.9689 48.3022 81.0638 48.9763 81.6476 49.2469C81.6476 49.2469 81.8201 49.92 82.225 50" fill="#EFAA88"/>
<path fill-rule="evenodd" clip-rule="evenodd" d="M86.9307 48C86.9307 48 85.03 46.4468 84 44.1793L89.8346 41L92 45.3868L86.9307 48Z" fill="#323657"/>
<path fill-rule="evenodd" clip-rule="evenodd" d="M74.467 6.1437C74.467 6.1437 73.147 8.71698 73.8013 9.11723C74.342 9.44801 73.1679 11.9733 73.0143 12.3856C72.8606 12.7984 73.9935 13.0979 74.2343 13.3635C74.4748 13.6291 75.1882 16.8969 76.1211 16.9955C77.0541 17.0937 81.2579 15.5569 82.403 14.3049C83.548 13.0536 84.487 7.40081 83.7227 5.01643C82.9589 2.63218 76.797 1.64853 74.467 6.1437" fill="#EEA886"/>
<path fill-rule="evenodd" clip-rule="evenodd" d="M74.3608 5.14339C74.3608 5.14339 73.0471 2.53223 75.4331 0.595421C77.819 -1.34202 82.2187 2.0576 82.7146 2.18753C83.2105 2.31695 86.0238 2.51315 84.6033 7.52019C83.3833 11.8191 83.213 12 83.213 12C83.213 12 82.3024 9.50947 81.7867 9.12949C80.9811 8.53711 79.2147 8.67934 79.2147 8.67934C79.2147 8.67934 80.0561 6.41439 78.7411 6.09366C77.4254 5.77306 75.6915 4.64328 74.3608 5.14339" fill="#16202E"/>
<path fill-rule="evenodd" clip-rule="evenodd" d="M81.2829 7.92434C81.3832 7.66471 81.7073 6.54765 82.6843 7.20339C83.6609 7.85956 82.0755 9.96424 81.9054 9.99122C81.7349 10.0183 80.4392 10.1106 81.2829 7.92434" fill="#EEA886"/>
<path fill-rule="evenodd" clip-rule="evenodd" d="M78.0123 16.6893C78.0115 16.7934 78.01 16.8975 78.0065 17C83.0283 15.8025 84 14 84 14C82.4337 14.7874 78 15.8386 78 15.8386C78.0093 16.0988 78.0152 16.3931 78.0123 16.6893" fill="#A77860"/>
</svg>
