<svg width="176" height="102" viewBox="0 0 176 102" fill="none" xmlns="http://www.w3.org/2000/svg">
<path fill-rule="evenodd" clip-rule="evenodd" d="M142.81 34.5149H121.541C121.243 34.5149 121.002 34.2746 121.002 33.9786C121.002 33.6821 121.243 33.4414 121.541 33.4414H142.81C143.109 33.4414 143.35 33.6821 143.35 33.9786C143.35 34.2746 143.109 34.5149 142.81 34.5149" fill="white"/>
<path fill-rule="evenodd" clip-rule="evenodd" d="M142.81 38.7013H121.541C121.243 38.7013 121.002 38.461 121.002 38.165C121.002 37.868 121.243 37.6277 121.541 37.6277H142.81C143.109 37.6277 143.35 37.868 143.35 38.165C143.35 38.461 143.109 38.7013 142.81 38.7013" fill="white"/>
<path fill-rule="evenodd" clip-rule="evenodd" d="M142.81 42.8877H121.541C121.243 42.8877 121.002 42.6469 121.002 42.3509C121.002 42.0544 121.243 41.8141 121.541 41.8141H142.81C143.109 41.8141 143.35 42.0544 143.35 42.3509C143.35 42.6469 143.109 42.8877 142.81 42.8877" fill="white"/>
<path fill-rule="evenodd" clip-rule="evenodd" d="M142.81 47.0736H121.541C121.243 47.0736 121.002 46.8333 121.002 46.5372C121.002 46.2408 121.243 46.0005 121.541 46.0005H142.81C143.109 46.0005 143.35 46.2408 143.35 46.5372C143.35 46.8333 143.109 47.0736 142.81 47.0736" fill="white"/>
<path fill-rule="evenodd" clip-rule="evenodd" d="M142.81 51.26H121.541C121.243 51.26 121.002 51.0196 121.002 50.7236C121.002 50.4271 121.243 50.1868 121.541 50.1868H142.81C143.109 50.1868 143.35 50.4271 143.35 50.7236C143.35 51.0196 143.109 51.26 142.81 51.26" fill="white"/>
<path fill-rule="evenodd" clip-rule="evenodd" d="M142.81 55.4463H121.541C121.243 55.4463 121.002 55.206 121.002 54.91C121.002 54.6135 121.243 54.3728 121.541 54.3728H142.81C143.109 54.3728 143.35 54.6135 143.35 54.91C143.35 55.206 143.109 55.4463 142.81 55.4463" fill="white"/>
<mask id="mask0" mask-type="alpha" maskUnits="userSpaceOnUse" x="0" y="1" width="176" height="101">
<path fill-rule="evenodd" clip-rule="evenodd" d="M0 102H175.824V1.07923H0V102Z" fill="white"/>
</mask>
<g mask="url(#mask0)">
<path fill-rule="evenodd" clip-rule="evenodd" d="M56.1304 30.4158H58.8947V27.667H56.1304V30.4158Z" fill="white"/>
<path fill-rule="evenodd" clip-rule="evenodd" d="M61.7125 30.4158H64.4769V27.667H61.7125V30.4158Z" fill="white"/>
<path fill-rule="evenodd" clip-rule="evenodd" d="M67.2942 30.4158H70.059V27.667H67.2942V30.4158Z" fill="white"/>
<path fill-rule="evenodd" clip-rule="evenodd" d="M72.8762 30.4158H75.6406V27.667H72.8762V30.4158Z" fill="white"/>
<path fill-rule="evenodd" clip-rule="evenodd" d="M56.1304 37.2638H58.8947V34.515H56.1304V37.2638Z" fill="white"/>
<path fill-rule="evenodd" clip-rule="evenodd" d="M61.7125 37.2638H64.4769V34.515H61.7125V37.2638Z" fill="white"/>
<path fill-rule="evenodd" clip-rule="evenodd" d="M67.2942 37.2638H70.059V34.515H67.2942V37.2638Z" fill="white"/>
<path fill-rule="evenodd" clip-rule="evenodd" d="M72.8762 37.2638H75.6406V34.515H72.8762V37.2638Z" fill="white"/>
<path fill-rule="evenodd" clip-rule="evenodd" d="M56.1304 44.1122H58.8947V41.3634H56.1304V44.1122Z" fill="white"/>
<path fill-rule="evenodd" clip-rule="evenodd" d="M61.7125 44.1122H64.4769V41.3634H61.7125V44.1122Z" fill="white"/>
<path fill-rule="evenodd" clip-rule="evenodd" d="M67.2942 44.1122H70.059V41.3634H67.2942V44.1122Z" fill="white"/>
<path fill-rule="evenodd" clip-rule="evenodd" d="M72.8762 44.1122H75.6406V41.3634H72.8762V44.1122Z" fill="white"/>
<path fill-rule="evenodd" clip-rule="evenodd" d="M31.6701 97.9056C31.256 97.9056 30.8987 97.5965 30.8514 97.1773L22.6013 24.4381C22.5497 23.9876 22.8758 23.5814 23.3285 23.5304C23.7825 23.4817 24.1897 23.8038 24.2405 24.2536L32.491 96.9931C32.5423 97.4433 32.2165 97.8495 31.7634 97.9004C31.7323 97.9039 31.7008 97.9056 31.6701 97.9056" fill="#8C9EA5"/>
<path fill-rule="evenodd" clip-rule="evenodd" d="M54.0034 97.9056C53.5892 97.9056 53.232 97.5965 53.1847 97.1773L44.9341 24.4381C44.8829 23.9876 45.2091 23.5814 45.6618 23.5304C46.1153 23.4817 46.5229 23.8038 46.5737 24.2536L54.8243 96.9931C54.8755 97.4433 54.5498 97.8495 54.0966 97.9004C54.0656 97.9039 54.034 97.9056 54.0034 97.9056" fill="#8C9EA5"/>
<path fill-rule="evenodd" clip-rule="evenodd" d="M46.6149 32.754H24.2813C23.8259 32.754 23.4564 32.3865 23.4564 31.9333C23.4564 31.4806 23.8259 31.1132 24.2813 31.1132H46.6149C47.0706 31.1132 47.4397 31.4806 47.4397 31.9333C47.4397 32.3865 47.0706 32.754 46.6149 32.754" fill="#8C9EA5"/>
<path fill-rule="evenodd" clip-rule="evenodd" d="M47.0814 39.9716H25.2149C24.7592 39.9716 24.3896 39.6042 24.3896 39.151C24.3896 38.6982 24.7592 38.3308 25.2149 38.3308H47.0814C47.5372 38.3308 47.9062 38.6982 47.9062 39.151C47.9062 39.6042 47.5372 39.9716 47.0814 39.9716" fill="#8C9EA5"/>
<path fill-rule="evenodd" clip-rule="evenodd" d="M47.548 47.1893H26.1478C25.6925 47.1893 25.323 46.8218 25.323 46.3686C25.323 45.9159 25.6925 45.5484 26.1478 45.5484H47.548C48.0038 45.5484 48.3729 45.9159 48.3729 46.3686C48.3729 46.8218 48.0038 47.1893 47.548 47.1893" fill="#8C9EA5"/>
<path fill-rule="evenodd" clip-rule="evenodd" d="M49.0707 54.4069H27.1149C26.6592 54.4069 26.2897 54.0395 26.2897 53.5863C26.2897 53.1335 26.6592 52.7661 27.1149 52.7661H49.0707C49.5265 52.7661 49.8956 53.1335 49.8956 53.5863C49.8956 54.0395 49.5265 54.4069 49.0707 54.4069" fill="#8C9EA5"/>
<path fill-rule="evenodd" clip-rule="evenodd" d="M49.8792 61.6245H27.7929C27.3372 61.6245 26.9677 61.2571 26.9677 60.8039C26.9677 60.3511 27.3372 59.9837 27.7929 59.9837H49.8792C50.3349 59.9837 50.704 60.3511 50.704 60.8039C50.704 61.2571 50.3349 61.6245 49.8792 61.6245" fill="#8C9EA5"/>
<path fill-rule="evenodd" clip-rule="evenodd" d="M50.7078 68.8421H28.6014C28.1461 68.8421 27.7766 68.4747 27.7766 68.0215C27.7766 67.5688 28.1461 67.2013 28.6014 67.2013H50.7078C51.1636 67.2013 51.5331 67.5688 51.5331 68.0215C51.5331 68.4747 51.1636 68.8421 50.7078 68.8421" fill="#8C9EA5"/>
<path fill-rule="evenodd" clip-rule="evenodd" d="M45.9169 25.8535H21.9135C21.0764 25.8535 20.3973 25.1783 20.3973 24.3459C20.3973 23.5136 21.0764 22.8388 21.9135 22.8388H45.9169C46.754 22.8388 47.4326 23.5136 47.4326 24.3459C47.4326 25.1783 46.754 25.8535 45.9169 25.8535" fill="#B0BEC5"/>
<path fill-rule="evenodd" clip-rule="evenodd" d="M36.5073 97.9056C36.4763 97.9056 36.4452 97.9039 36.4141 97.9004C35.961 97.8495 35.6352 97.4433 35.6865 96.9931L43.937 24.2536C43.9878 23.8038 44.3954 23.4813 44.849 23.5304C45.3017 23.5814 45.6278 23.9876 45.5762 24.4381L37.3261 97.1773C37.2783 97.5961 36.9215 97.9056 36.5073 97.9056" fill="#B0BEC5"/>
<path fill-rule="evenodd" clip-rule="evenodd" d="M14.1741 97.9056C14.143 97.9056 14.1119 97.9039 14.0804 97.9004C13.6277 97.8495 13.302 97.4433 13.3532 96.9931L21.6037 24.2536C21.6545 23.8038 22.0626 23.4813 22.5157 23.5304C22.9684 23.5814 23.2946 23.9876 23.2429 24.4381L14.9928 97.1773C14.9451 97.5961 14.5883 97.9056 14.1741 97.9056" fill="#B0BEC5"/>
<path fill-rule="evenodd" clip-rule="evenodd" d="M43.8959 32.754H21.5628C21.1074 32.754 20.7379 32.3865 20.7379 31.9333C20.7379 31.4806 21.1074 31.1132 21.5628 31.1132H43.8959C44.3517 31.1132 44.7212 31.4806 44.7212 31.9333C44.7212 32.3865 44.3517 32.754 43.8959 32.754" fill="#B0BEC5"/>
<path fill-rule="evenodd" clip-rule="evenodd" d="M42.9627 39.9716H21.0963C20.6405 39.9716 20.271 39.6042 20.271 39.151C20.271 38.6982 20.6405 38.3308 21.0963 38.3308H42.9627C43.4185 38.3308 43.7876 38.6982 43.7876 39.151C43.7876 39.6042 43.4185 39.9716 42.9627 39.9716" fill="#B0BEC5"/>
<path fill-rule="evenodd" clip-rule="evenodd" d="M42.0298 47.1893H20.6296C20.1743 47.1893 19.8048 46.8218 19.8048 46.3686C19.8048 45.9159 20.1743 45.5484 20.6296 45.5484H42.0298C42.4856 45.5484 42.8547 45.9159 42.8547 46.3686C42.8547 46.8218 42.4856 47.1893 42.0298 47.1893" fill="#B0BEC5"/>
<path fill-rule="evenodd" clip-rule="evenodd" d="M41.0627 54.4069H19.1069C18.6511 54.4069 18.2816 54.0395 18.2816 53.5863C18.2816 53.1335 18.6511 52.7661 19.1069 52.7661H41.0627C41.5184 52.7661 41.8875 53.1335 41.8875 53.5863C41.8875 54.0395 41.5184 54.4069 41.0627 54.4069" fill="#B0BEC5"/>
<path fill-rule="evenodd" clip-rule="evenodd" d="M40.3844 61.6245H18.2982C17.8424 61.6245 17.4729 61.2571 17.4729 60.8039C17.4729 60.3511 17.8424 59.9837 18.2982 59.9837H40.3844C40.8402 59.9837 41.2097 60.3511 41.2097 60.8039C41.2097 61.2571 40.8402 61.6245 40.3844 61.6245" fill="#B0BEC5"/>
<path fill-rule="evenodd" clip-rule="evenodd" d="M39.5758 68.8421H17.4694C17.014 68.8421 16.6445 68.4747 16.6445 68.0215C16.6445 67.5688 17.014 67.2013 17.4694 67.2013H39.5758C40.0315 67.2013 40.401 67.5688 40.401 68.0215C40.401 68.4747 40.0315 68.8421 39.5758 68.8421" fill="#B0BEC5"/>
<path fill-rule="evenodd" clip-rule="evenodd" d="M21.7831 88.4313C18.0152 88.4313 14.9602 91.4687 14.9602 95.2158C14.9602 98.9623 18.0152 102 21.7831 102H79.4861V88.4313H21.7831Z" fill="#B0BEC5"/>
<path fill-rule="evenodd" clip-rule="evenodd" d="M86.3086 95.2158C86.3086 98.9623 83.254 102 79.4862 102C75.7179 102 72.6633 98.9623 72.6633 95.2158C72.6633 91.4687 75.7179 88.4313 79.4862 88.4313C83.254 88.4313 86.3086 91.4687 86.3086 95.2158" fill="#CFD8DC"/>
<path fill-rule="evenodd" clip-rule="evenodd" d="M74.5681 95.2158C74.5681 92.5149 76.7699 90.3255 79.486 90.3255C82.2022 90.3255 84.4035 92.5149 84.4035 95.2158C84.4035 97.9162 82.2022 100.106 79.486 100.106C76.7699 100.106 74.5681 97.9162 74.5681 95.2158" fill="#B0BEC5"/>
<path fill-rule="evenodd" clip-rule="evenodd" d="M14.4304 76.3531C10.6622 76.3531 7.60754 79.3909 7.60754 83.1375C7.60754 86.8841 10.6622 89.9219 14.4304 89.9219H72.133V76.3531H14.4304Z" fill="#B0BEC5"/>
<path fill-rule="evenodd" clip-rule="evenodd" d="M78.956 83.1375C78.956 86.8841 75.9014 89.9219 72.1331 89.9219C68.3653 89.9219 65.3103 86.8841 65.3103 83.1375C65.3103 79.3909 68.3653 76.3531 72.1331 76.3531C75.9014 76.3531 78.956 79.3909 78.956 83.1375" fill="#CFD8DC"/>
<path fill-rule="evenodd" clip-rule="evenodd" d="M67.2153 83.1375C67.2153 80.4371 69.4171 78.2477 72.1333 78.2477C74.8494 78.2477 77.0512 80.4371 77.0512 83.1375C77.0512 85.8384 74.8494 88.0277 72.1333 88.0277C69.4171 88.0277 67.2153 85.8384 67.2153 83.1375" fill="#B0BEC5"/>
<path fill-rule="evenodd" clip-rule="evenodd" d="M6.82285 88.4313C3.05461 88.4313 0 91.4687 0 95.2158C0 98.9623 3.05461 102 6.82285 102H64.5255V88.4313H6.82285Z" fill="#B0BEC5"/>
<path fill-rule="evenodd" clip-rule="evenodd" d="M71.3484 95.2158C71.3484 98.9623 68.2938 102 64.5255 102C60.7577 102 57.7031 98.9623 57.7031 95.2158C57.7031 91.4687 60.7577 88.4313 64.5255 88.4313C68.2938 88.4313 71.3484 91.4687 71.3484 95.2158" fill="#CFD8DC"/>
<path fill-rule="evenodd" clip-rule="evenodd" d="M59.6079 95.2158C59.6079 92.5149 61.8097 90.3255 64.5254 90.3255C67.242 90.3255 69.4433 92.5149 69.4433 95.2158C69.4433 97.9162 67.242 100.106 64.5254 100.106C61.8097 100.106 59.6079 97.9162 59.6079 95.2158" fill="#B0BEC5"/>
<path fill-rule="evenodd" clip-rule="evenodd" d="M174.352 88.6852V72.681C174.352 71.6405 173.356 70.7968 172.127 70.7968H156.222C154.993 70.7968 153.997 71.6405 153.997 72.681V88.6852C153.997 90.4305 155.017 92.0621 156.721 93.043L161.79 95.9602C163.229 96.7882 165.12 96.7882 166.559 95.9602L171.627 93.043C173.331 92.0621 174.352 90.4305 174.352 88.6852" fill="#90A4AE"/>
<path fill-rule="evenodd" clip-rule="evenodd" d="M165.87 39.1511V79.0866C165.87 80.0178 165.111 80.7722 164.174 80.7722C163.238 80.7722 162.479 80.0178 162.479 79.0866V39.1511H165.87Z" fill="#37474F"/>
<path fill-rule="evenodd" clip-rule="evenodd" d="M157.908 31.9335C157.908 35.3692 160.719 38.1646 164.175 38.1646C167.63 38.1646 170.441 35.3692 170.441 31.9335V25.7024H157.908V31.9335ZM172.425 24.7159V31.9335C172.425 36.4576 168.724 40.138 164.175 40.138C159.625 40.138 155.924 36.4576 155.924 31.9335V24.7159C155.924 24.1713 156.368 23.729 156.916 23.729H171.433C171.981 23.729 172.425 24.1713 172.425 24.7159V24.7159Z" fill="#37474F"/>
<path fill-rule="evenodd" clip-rule="evenodd" d="M168.226 23.6071V25.8765C168.226 26.186 167.974 26.4364 167.663 26.4364H160.408C160.097 26.4364 159.844 26.186 159.844 25.8765V23.6071C159.844 23.298 160.097 23.0472 160.408 23.0472H167.663C167.974 23.0472 168.226 23.298 168.226 23.6071" fill="#FFD740"/>
<path fill-rule="evenodd" clip-rule="evenodd" d="M100.489 99.6066C97.8738 99.6062 96.609 96.3515 98.5975 94.6633C98.9027 94.4042 99.2359 94.1779 99.5931 93.9924C101.019 93.2527 102.763 93.1979 104.265 93.7604C105.23 94.1221 106.324 93.9058 107.093 93.221C108.228 92.2097 109.83 91.6664 111.379 91.6193C112.867 91.5745 114.323 91.9054 115.744 92.3703C116.901 92.7495 118.178 92.342 118.897 91.3634C121.96 87.1884 126.97 84.5385 132.13 83.5955C135.252 83.0248 138.556 83.0248 141.516 84.1658C143.737 85.0212 145.736 86.5894 146.934 88.6081C147.539 89.6259 148.748 90.1522 149.915 89.9245C152.162 89.4853 154.682 90.302 156.256 91.9598C157.156 92.908 158.575 93.1905 159.719 92.551C160.739 91.9807 161.837 91.5884 163 91.5479C164.329 91.5027 165.726 92.0734 166.59 93.0355C167.285 93.8087 168.358 94.1099 169.388 93.9558C170.18 93.8365 171.009 93.9637 171.705 94.3577C171.719 94.3655 171.732 94.3733 171.745 94.3807C174.228 95.8217 173.137 99.6262 170.262 99.6253L100.489 99.6066Z" fill="#CFD8DC"/>
<path fill-rule="evenodd" clip-rule="evenodd" d="M174.664 96.654H96.085C95.444 96.654 94.9243 97.1708 94.9243 97.8081V100.846C94.9243 101.483 95.444 102 96.085 102H174.664C175.305 102 175.824 101.483 175.824 100.846V97.8081C175.824 97.1708 175.305 96.654 174.664 96.654" fill="#455A64"/>
<path fill-rule="evenodd" clip-rule="evenodd" d="M92.2391 50.942L95.4308 97.6175L100.469 97.6053L101.515 50.9193L92.2391 50.942Z" fill="#1B1754"/>
<path fill-rule="evenodd" clip-rule="evenodd" d="M91.2495 101.441H100.442V97.2035H95.5112C93.1575 97.2035 91.2495 99.1007 91.2495 101.441" fill="#243051"/>
<path fill-rule="evenodd" clip-rule="evenodd" d="M102.129 101.441H111.713L111.321 97.2035H106.39C104.037 97.2035 102.129 99.1007 102.129 101.441" fill="#243051"/>
<path fill-rule="evenodd" clip-rule="evenodd" d="M108.109 50.9696L111.321 97.2032L106.389 97.3569L98.1533 50.9696H108.109Z" fill="#2A2B7B"/>
<path fill-rule="evenodd" clip-rule="evenodd" d="M99.5068 26.9359L112.592 38.5518C113.677 39.5152 115.306 39.5509 116.433 38.6358C117.717 37.5927 117.888 35.7038 116.812 34.4491C116.812 34.4491 110.492 26.0174 106.951 23.2159L99.5068 26.9359Z" fill="#F04365"/>
<path fill-rule="evenodd" clip-rule="evenodd" d="M119.705 55.2091C119.705 56.9352 118.298 58.3349 116.561 58.3349C114.826 58.3349 113.418 56.9352 113.418 55.2091C113.418 53.4825 114.826 52.0829 116.561 52.0829C118.298 52.0829 119.705 53.4825 119.705 55.2091" fill="#F89A6E"/>
<path fill-rule="evenodd" clip-rule="evenodd" d="M112.512 37.2409L114.238 52.7897H118.724L117.702 36.7346C117.594 35.2183 116.203 34.1195 114.693 34.3572C113.303 34.5758 112.337 35.8522 112.512 37.2409" fill="#F04365"/>
<path fill-rule="evenodd" clip-rule="evenodd" d="M98.1614 21.0337C98.1614 21.0337 91.7435 21.2348 91.4011 27.6192C91.0561 34.0409 92.1502 50.9697 92.1502 50.9697H108.109L108.513 30.2356C109.51 24.6941 106.687 21.1708 100.963 20.9579C100.104 20.9257 99.1718 20.9475 98.1614 21.0337" fill="#F04365"/>
<path fill-rule="evenodd" clip-rule="evenodd" d="M108.423 34.8512L105.677 32.4124L108.325 39.9069L108.423 34.8512Z" fill="#D72E57"/>
<path fill-rule="evenodd" clip-rule="evenodd" d="M76.4305 15.5362C76.4305 17.2627 75.023 18.6624 73.287 18.6624C71.5507 18.6624 70.1436 17.2627 70.1436 15.5362C70.1436 13.81 71.5507 12.4104 73.287 12.4104C75.023 12.4104 76.4305 13.81 76.4305 15.5362" fill="#F89A6E"/>
<path fill-rule="evenodd" clip-rule="evenodd" d="M83.1982 32.5134L76.4305 17.2284L72.115 18.5828L78.2176 34.0527C78.6327 35.5155 80.218 36.3126 81.6483 35.7763C82.9657 35.2826 83.6517 33.8385 83.1982 32.5134" fill="#F04365"/>
<path fill-rule="evenodd" clip-rule="evenodd" d="M95.6683 21.5928C87.2116 25.0851 79.5932 30.4494 79.5932 30.4494C78.3179 31.1447 77.7408 32.6597 78.2321 34.0214C78.7925 35.573 80.5262 36.364 82.0747 35.7737L94.9713 29.5343L95.6683 21.5928Z" fill="#F04365"/>
<path fill-rule="evenodd" clip-rule="evenodd" d="M91.3336 31.294C91.3349 31.2936 91.401 27.6193 91.401 27.6193L88.4781 32.6758L91.3336 31.294Z" fill="#D72E57"/>
<path fill-rule="evenodd" clip-rule="evenodd" d="M96.3037 17.4072L96.506 21.6962C96.5493 22.6292 97.1386 23.4511 98.012 23.7959C99.67 24.4507 101.439 23.1346 101.275 21.3684L101.015 17.106L96.3037 17.4072Z" fill="#F89A6E"/>
<path fill-rule="evenodd" clip-rule="evenodd" d="M96.4482 20.4704C96.4482 20.4704 100.444 21.0154 101.015 17.1056C101.585 13.1966 97.2122 14.8135 97.2122 14.8135L96.3326 18.0255L96.4482 20.4704Z" fill="#E88057"/>
<path fill-rule="evenodd" clip-rule="evenodd" d="M93.4933 7.25869C90.8529 10.0889 91.0197 14.5111 93.8663 17.1367C96.7125 19.7627 101.16 19.5964 103.8 16.7662C106.441 13.936 106.274 9.51378 103.428 6.88778C100.581 4.26222 96.1338 4.42852 93.4933 7.25869" fill="#F89A6E"/>
</g>
<mask id="mask1" mask-type="alpha" maskUnits="userSpaceOnUse" x="92" y="5" width="15" height="15">
<path fill-rule="evenodd" clip-rule="evenodd" d="M94.0673 7.44364C91.3259 10.3986 91.4987 15.0159 94.4541 17.7577V17.7577C97.4091 20.4991 102.027 20.3259 104.768 17.3705V17.3705C107.509 14.4155 107.336 9.79818 104.381 7.05682V7.05682C102.976 5.75364 101.195 5.10909 99.4196 5.10909V5.10909C97.4596 5.10864 95.5055 5.89364 94.0673 7.44364V7.44364Z" fill="white"/>
</mask>
<g mask="url(#mask1)">
<path fill-rule="evenodd" clip-rule="evenodd" d="M101.555 14.6038C101.555 14.6038 98.6741 19.8197 102.726 21.2542C106.779 22.6888 107.943 11.4106 107.943 11.4106L103.558 2.81559L92.8668 2.07423L92.2695 5.7765C92.2695 5.7765 93.2904 9.3815 102.256 12.7738L101.555 14.6038Z" fill="#243051"/>
</g>
<mask id="mask2" mask-type="alpha" maskUnits="userSpaceOnUse" x="92" y="5" width="15" height="15">
<path fill-rule="evenodd" clip-rule="evenodd" d="M94.0673 7.44364C91.3259 10.3986 91.4987 15.0159 94.4541 17.7577V17.7577C97.4091 20.4991 102.027 20.3259 104.768 17.3705V17.3705C107.509 14.4155 107.336 9.79818 104.381 7.05682V7.05682C102.976 5.75364 101.195 5.10909 99.4196 5.10909V5.10909C97.4596 5.10864 95.5055 5.89364 94.0673 7.44364V7.44364Z" fill="white"/>
</mask>
<g mask="url(#mask2)">
<path fill-rule="evenodd" clip-rule="evenodd" d="M99.3706 10.5031L100.636 14.7558L103.858 12.8735L99.3706 10.5031Z" fill="#243051"/>
</g>
<path fill-rule="evenodd" clip-rule="evenodd" d="M101.584 11.5394C100.878 12.2847 100.923 13.4491 101.684 14.1404C102.445 14.8317 103.635 14.7879 104.341 14.0431C105.047 13.2978 105.003 12.1334 104.241 11.4417C103.48 10.7504 102.291 10.7945 101.584 11.5394" fill="#F89A6E"/>
<mask id="mask3" mask-type="alpha" maskUnits="userSpaceOnUse" x="93" y="0" width="16" height="11">
<path fill-rule="evenodd" clip-rule="evenodd" d="M93.0148 0.0780029H108.112V10.2371H93.0148V0.0780029Z" fill="white"/>
</mask>
<g mask="url(#mask3)">
<path fill-rule="evenodd" clip-rule="evenodd" d="M93.0216 8.62264C93.0216 8.62264 92.6766 3.70007 96.9065 1.1355C100.394 -0.979075 105.104 0.175925 107.033 3.72064C107.939 5.38521 108.453 7.0155 107.853 10.2371L93.0216 8.62264Z" fill="#FDD63B"/>
</g>
<path fill-rule="evenodd" clip-rule="evenodd" d="M107.644 10.9509C107.617 10.9509 107.59 10.9497 107.562 10.9467L90.6905 9.17323C90.2886 9.12866 89.9997 8.77423 90.0448 8.38123C90.0899 7.98909 90.4454 7.71052 90.8534 7.74909L107.725 9.52337C108.127 9.56752 108.416 9.92194 108.371 10.3154C108.328 10.6809 108.011 10.9509 107.644 10.9509" fill="#F2A62F"/>
</svg>
