<svg width="107" height="123" viewBox="0 0 107 123" fill="none" xmlns="http://www.w3.org/2000/svg">
<path fill-rule="evenodd" clip-rule="evenodd" d="M11.274 13.3923C9.41553 18.9748 9.53671 25.2745 11.9921 30.6184C14.4482 35.963 19.3095 40.2274 25.0177 41.5601C28.3517 42.3395 31.9584 42.112 35.0542 40.6465C38.1507 39.181 40.6798 36.4278 41.6148 33.1206C42.5499 29.8134 41.7704 26.0048 39.4073 23.5179C37.6363 21.6519 35.1107 20.5703 33.5848 18.4976C30.9683 14.9435 32.0576 9.60304 29.4534 6.03858C27.0662 2.7715 22.1058 2.20024 18.5053 4.0302C14.9048 5.85945 12.5533 9.5484 11.274 13.3923" fill="#393762"/>
<path fill-rule="evenodd" clip-rule="evenodd" d="M40.2887 119.47V119.47C40.2887 119.47 45.9373 121.529 46 122H37.5805L37 117L40.2887 119.47Z" fill="#ECE0D3"/>
<path fill-rule="evenodd" clip-rule="evenodd" d="M6 109.228L4.10497 110.715C4.10497 110.715 4.37639 115.674 4.05307 116L0 109.755L4.05868 107L6 109.228Z" fill="#ECE0D3"/>
<path fill-rule="evenodd" clip-rule="evenodd" d="M26 80.6722C26 80.6722 24.6229 92.7112 24.3611 93.1735C24.0986 93.6372 3.53586 110 3.53586 110L2 107.242L16.5572 87.0005L14.4588 63L26 80.6722Z" fill="#E48868"/>
<path fill-rule="evenodd" clip-rule="evenodd" d="M14.2805 49C19.4593 49.5296 24.7018 49.9526 29.2321 52.2962L27.9991 56.3311C27.9991 56.3311 35.1209 77.1027 35.3821 78.84C35.6432 80.5773 41 120 41 120L38.173 119.631L26.2479 81.1153C26.2479 81.1153 11.3074 63.281 12.0251 56.2509C12.3472 53.0962 13.3135 50.6955 14.2805 49" fill="#E48868"/>
<path fill-rule="evenodd" clip-rule="evenodd" d="M33 71.9763C30.8431 65.4535 28.0644 57.3548 28.0644 57.3548L29.3032 53.3086C24.7536 50.9565 19.4896 50.5314 14.2897 50C13.3187 51.7011 12.3484 54.1099 12.025 57.2758C11.7996 59.4866 13.1212 62.7624 15.0381 66.2178L15.9556 77C17.7786 76.7245 19.5835 76.3407 21.3732 75.8827C21.3753 75.8855 21.3774 75.889 21.3795 75.8918C21.5812 75.8393 21.7808 75.7757 21.9818 75.7219C22.2065 75.6617 22.4332 75.6058 22.6572 75.5443L22.6509 75.5338C24.4065 75.0479 26.1509 74.5137 27.8752 73.9243C29.5821 73.3411 31.2876 72.6566 33 71.9763" fill="#DE6879"/>
<path fill-rule="evenodd" clip-rule="evenodd" d="M25.3204 25C25.3204 25 24.6834 19.397 25.7206 18.4965C26.3968 17.909 28.6458 18.8274 29.2744 17.8973C29.463 17.618 29.1145 15.5151 28.9741 14.1104C28.9392 13.7561 30.0525 14.1888 29.9981 13.8001C29.9338 13.3461 28.071 11.4929 28.1318 11.0058C29.0768 3.45395 16.3639 3.24482 16.0175 9.13884C15.801 12.8281 17.5981 16.5758 21.1247 18.6183L19.0475 22.5476L25.3204 25Z" fill="#E48868"/>
<path fill-rule="evenodd" clip-rule="evenodd" d="M29.3009 39L34.8058 48.0295C34.8058 48.0295 46.606 54.0284 47.2992 54.2677C47.9923 54.5084 51.5096 57.5222 51.9342 58.2297C52.3588 58.9371 50.6025 59.2254 50.2718 59.2226C49.9411 59.2198 48.8856 58.7419 48.8856 58.7419C48.8856 58.7419 46.7911 60.0336 46.6916 59.9993C46.5929 59.965 45.1936 56.9009 45.1936 56.9009C45.1936 56.9009 31.4376 53.3455 30.3544 52.4274C29.2719 51.51 25 41.0572 25 41.0572L29.3009 39Z" fill="#E48868"/>
<path fill-rule="evenodd" clip-rule="evenodd" d="M28.412 37L33.8954 48.9072C33.8954 48.9072 39.1987 47.7597 41.0652 50.181C42.9316 52.6017 45 53.6376 45 53.6376L44.4652 57C44.4652 57 30.9825 55.7694 28.9236 53.4827C26.8641 51.196 27.0019 38.7768 27.0019 38.7768L28.412 37Z" fill="#EFC33B"/>
<path fill-rule="evenodd" clip-rule="evenodd" d="M25.4846 26L27 23.2374L21.0517 19L19 22.1348L25.4846 26Z" fill="#ECE0D3"/>
<path fill-rule="evenodd" clip-rule="evenodd" d="M15.8243 24.6334C15.8243 24.6334 19.3495 19.6246 23.1787 21.3688C24.1339 21.804 31.6121 31.5935 31.7572 33.2481C31.903 34.9019 28.7863 40.6316 28.7863 40.6316L32 60L10 53.8539L14.8711 41.951C14.8711 41.951 13.3237 35.4559 15.8243 24.6334" fill="#EFC33B"/>
<path fill-rule="evenodd" clip-rule="evenodd" d="M19.8123 73C19.7542 73 19.6967 72.9714 19.6602 72.9174C18.323 70.9528 17.1268 69.173 16.0277 67.3002C15.9739 67.2084 16.0005 67.0861 16.0896 67.0295C16.1762 66.9722 16.2924 67.0008 16.3475 67.0939C17.4398 68.955 18.6316 70.7283 19.9651 72.6883C20.0251 72.7761 20.0059 72.8998 19.9218 72.9629C19.889 72.9876 19.8507 73 19.8123 73" fill="#C55469"/>
<path fill-rule="evenodd" clip-rule="evenodd" d="M78.4646 22L79.7178 17.193C79.7178 17.193 81.5268 17.6813 82.3236 16.9142C82.6564 16.5931 82.9634 15.1908 83.0905 12.9707C83.1044 12.7342 83.9915 13.2149 83.9999 12.9707C84.0165 12.4977 82.4215 10.3429 82.5605 9.46765C83.0697 6.25723 82.8002 5.39862 81.8679 4.48938C79.797 2.46978 72.5418 2.17433 71.5525 5.6906C70.564 9.20757 70.8808 10.9123 72.6737 15.91L71.5775 20.8945L78.4646 22Z" fill="#E48868"/>
<path fill-rule="evenodd" clip-rule="evenodd" d="M96.5452 114L98.3331 119.863C98.3331 119.863 103.843 120.225 104 120.636L96.0704 123L94 114.759L96.5452 114Z" fill="#ECE0D3"/>
<path fill-rule="evenodd" clip-rule="evenodd" d="M54 123H49.3632L46 120.248L50.1712 113L52.4722 114.485L49.7255 119.888L50.5807 122.049L54 123Z" fill="#ECE0D3"/>
<path fill-rule="evenodd" clip-rule="evenodd" d="M64.5602 86.7865C62.7357 86.4449 62.2196 86.4883 60.4369 86L47 116.364L49.4571 118L65.5178 93.666L68 87.8306C66.7676 87.5937 65.8079 87.02 64.5602 86.7865" fill="#E48868"/>
<path fill-rule="evenodd" clip-rule="evenodd" d="M88.3376 85C85.524 86.0345 84.8974 87.1557 82 87.9484L82.4463 89.9979L95.0399 119L98 118.424L88.3376 85Z" fill="#E48868"/>
<path fill-rule="evenodd" clip-rule="evenodd" d="M90 84.8452L84.4124 63H63.6735L60 87.0109C61.7567 87.5019 63.5209 87.9596 65.3188 88.3059C66.5717 88.547 67.8191 88.7569 69.0551 89L74.7048 74.3929L80.6713 88.4078C83.5499 87.6153 87.2079 85.893 90 84.8452" fill="#4E587F"/>
<path fill-rule="evenodd" clip-rule="evenodd" d="M71.9428 17C71.9428 17 76.2672 18.3595 78.44 20.8616C80.6135 23.3644 84.119 30.6043 84.1966 31.4166C84.2742 32.2295 83.1057 41.1676 83.1057 41.1676L87 64.8512C87 64.8512 70.3333 67.436 62 64.8512L66.3614 45.2825C66.3614 45.2825 65.7384 38.3977 65.037 37.5848C64.3363 36.7732 65.5824 29.9394 66.1279 26.7627C66.6733 23.586 69.1655 19.9667 70.0221 19.2275C70.8788 18.4889 71.9428 17 71.9428 17" fill="#7FBBF7"/>
<path fill-rule="evenodd" clip-rule="evenodd" d="M73 17.3031C71.0195 15.9716 64.0948 15.7295 63.2717 16.265C62.4487 16.8012 64.3689 18.4938 64.1633 19.6167C63.957 20.7396 59.9118 22.2004 61.2831 24.6493C62.6543 27.0976 66.6995 30 66.6995 30L73 17.3031Z" fill="#7FBBF7"/>
<path fill-rule="evenodd" clip-rule="evenodd" d="M75.227 72C75.1843 72 75.1416 71.9898 75.1034 71.9674C74.9992 71.9055 74.9678 71.7785 75.0367 71.682L77.5822 68.0946C77.6504 67.9988 77.7913 67.9709 77.8962 68.0334C78.0011 68.0946 78.0318 68.2223 77.9637 68.3188L75.4181 71.9055C75.3747 71.9674 75.302 72 75.227 72Z" fill="#454F78"/>
<path fill-rule="evenodd" clip-rule="evenodd" d="M83.4152 0.385368C83.4457 0.801623 83.2681 1.22867 82.9501 1.50123C83.1813 0.773962 82.4356 0.00891715 81.6696 0.00014679C80.9035 -0.00929821 80.3754 0.43799 79.9456 1.07013C80.1341 0.736857 80.713 0.825235 80.8744 1.17268C81.0357 1.52012 80.8411 1.95189 80.5239 2.16845C80.208 2.38433 79.8039 2.42751 79.4189 2.42346C78.5173 2.41267 77.6367 2.1752 76.7655 1.94177C75.8951 1.70834 75.0118 1.47492 74.1102 1.47357C73.2085 1.47154 72.2717 1.72791 71.6256 2.35398C70.9796 2.98004 70.7552 4.1917 71.1782 4.98373C68.9167 5.90597 70.4827 9.84116 71.1782 11.5797C71.8737 13.3183 73.0682 15.778 73.0682 15.778L75.3853 13.5227C75.3853 13.5227 73.6166 11.4772 74.3942 10.557C75.1718 9.63675 75.9805 11.0683 75.9805 11.0683C75.9805 11.0683 76.2375 15.4144 76.8469 15.6701C77.4563 15.9258 81.0154 18.482 82.5339 17.9193C84.0524 17.3574 83.2335 12.9202 83.2335 12.9202L80.9998 12.6625C78.9518 12.4271 77.4285 10.6649 77.4997 8.61399C77.4997 8.61399 79.9239 9.41614 80.3605 7.38681C82.0465 7.14596 84.089 6.45243 84.7283 4.88119C85.3676 3.30995 84.8585 1.28534 83.4152 0.385368" fill="#393762"/>
<path fill-rule="evenodd" clip-rule="evenodd" d="M80 2.53235C80 2.53235 75.9126 11.0718 71.4054 13C71.4054 13 67.9277 7.59923 68.0011 5.18086C68.0746 2.76381 69.9859 1.21741 73.0002 1.01654C76.0144 0.814347 80 2.53235 80 2.53235" fill="#DC5955"/>
<path fill-rule="evenodd" clip-rule="evenodd" d="M51.9235 56.1996C51.5389 55.5998 52.3814 54.1941 53 53.4264C52.5097 52.6255 52.5047 50.8419 52.0849 50C49.4571 54.5381 47.5937 56.4111 47.3795 57.0207C46.9039 58.3723 46.7025 59.1351 47.8311 59.2176C48.9597 59.3001 48.3172 60.8098 49.2654 60.7093C50.213 60.608 49.7438 62.42 50.6794 61.909C51.6157 61.3993 51.5107 59.2301 51.5107 59.2301C51.5107 59.2301 53.4009 58.5026 51.9235 56.1996" fill="#E48868"/>
<path fill-rule="evenodd" clip-rule="evenodd" d="M69.2095 21.1061C66.3316 22.6037 50 53.3389 50 53.3389L54.2242 56C54.2242 56 57.9148 50.0272 59.9308 48.5408C61.9468 47.0537 62.5969 46.4052 62.7897 43.4928C62.9818 40.5803 72.2037 33.3738 73.6777 30.1448C75.1517 26.9151 71.2051 20.0675 69.2095 21.1061" fill="#7FBBF7"/>
<path fill-rule="evenodd" clip-rule="evenodd" d="M72.215 11C72.1631 11 72.1113 10.982 72.0701 10.9453C71.9821 10.867 71.9764 10.7341 72.0559 10.6482C73.8818 8.69524 75.4081 6.49781 76.5915 4.11826C76.6426 4.01299 76.7718 3.97075 76.879 4.0213C76.9855 4.07186 77.0302 4.1979 76.9784 4.30178C75.7773 6.71735 74.2275 8.94801 72.374 10.9314C72.3321 10.9771 72.2732 11 72.215 11" fill="#A34745"/>
<path fill-rule="evenodd" clip-rule="evenodd" d="M64.663 38C64.5658 38 64.4795 37.9311 64.4611 37.8331C63.3071 31.8459 64.0669 23.7668 69.6605 19.0489C69.7482 18.9759 69.878 18.9854 69.9507 19.0719C70.0248 19.1584 70.0139 19.2875 69.9276 19.3612C64.4693 23.9648 63.7332 31.8824 64.8648 37.7567C64.8873 37.8675 64.8139 37.975 64.7017 37.9959C64.6888 37.9986 64.6759 38 64.663 38" fill="#639BDA"/>
<path fill-rule="evenodd" clip-rule="evenodd" d="M85.2495 38.0191H82.7603C82.7603 38.0191 76.746 23.8733 74.6662 22.1282C72.5863 20.3832 72.0367 36.9409 75.4738 41.9043C78.9109 46.8671 79.7144 46.891 86.3187 44.2555C92.9224 41.6207 85.2495 38.0191 85.2495 38.0191" fill="#7FBBF7"/>
<path fill-rule="evenodd" clip-rule="evenodd" d="M104.903 32.4713C105.089 31.8296 104.979 29.829 104.814 30.0117C104.649 30.1945 104.5 31.3124 104.5 31.3124L104.438 31.8541C104.438 31.8541 104.167 31.7052 104.154 31.8505C104.14 31.9965 104.043 32.6835 104.043 32.6835L104 34L104.903 32.4713Z" fill="#E48868"/>
<mask id="mask0" mask-type="alpha" maskUnits="userSpaceOnUse" x="102" y="26" width="5" height="10">
<path fill-rule="evenodd" clip-rule="evenodd" d="M102.021 26.0424H106.411V35.6064H102.021V26.0424Z" fill="white"/>
</mask>
<g mask="url(#mask0)">
<path fill-rule="evenodd" clip-rule="evenodd" d="M102.021 35.4717L103.542 30.2257L104.8 26.0424L106.412 26.6064L103.432 35.6064L102.021 35.4717Z" fill="#ECE0D3"/>
</g>
<path fill-rule="evenodd" clip-rule="evenodd" d="M87 38.0133L88.2109 43C88.2109 43 100.446 38.0126 101.083 37.7716C101.083 37.7716 102.961 36.2252 103.34 35.9289C103.719 35.6333 104.902 32.5713 104.997 32.2757C105.091 31.9787 102.819 31.831 102.819 31.831C102.819 31.831 102.753 30.3636 102.635 29.8923C102.572 29.6366 102.052 28.4887 101.819 29.2661L101.314 31.5291L100.594 32.2757C100.22 32.8136 99.7883 35.0898 99.7883 35.0898L87 38.0133Z" fill="#E48868"/>
<path fill-rule="evenodd" clip-rule="evenodd" d="M86 38.1958C86 38.1958 87.2792 34.658 89.6859 36.0936C92.092 37.5293 92.3872 35.7508 92.3872 35.7508L98.8944 34L101 38.1078L87.0283 44L86 38.1958Z" fill="#7FBBF7"/>
<path fill-rule="evenodd" clip-rule="evenodd" d="M80.0089 46C79.1348 46 78.2134 45.6769 77.383 45.0648C76.404 44.3438 75.6826 43.3549 75.0272 42.4036C73.0824 39.5812 71.364 36.5732 69.9191 33.464C68.9748 31.4317 68.0896 29.2276 68.0063 26.8798C67.9306 24.733 68.543 22.8598 69.6449 21.8695C70.451 21.1457 71.4827 20.8694 72.7262 21.0571C72.8401 21.0738 72.92 21.1806 72.9026 21.2965C72.8852 21.4123 72.7867 21.4919 72.6631 21.4745C71.5556 21.3104 70.6336 21.5484 69.9261 22.1849C68.9158 23.0929 68.3555 24.8426 68.427 26.8652C68.5083 29.1369 69.3755 31.2935 70.3003 33.2846C71.7348 36.3729 73.4421 39.3593 75.3737 42.1628C76.0083 43.0841 76.7054 44.0409 77.6316 44.7235C78.6175 45.4493 79.7798 45.7362 80.7366 45.4863C80.8518 45.4577 80.9636 45.5247 80.9935 45.6385C81.0219 45.7515 80.9546 45.8674 80.8421 45.896C80.5727 45.9651 80.2929 46 80.0089 46" fill="#639BDA"/>
<path fill-rule="evenodd" clip-rule="evenodd" d="M81.7238 37C81.7183 37 81.7127 37 81.7086 36.9993C81.5927 36.9904 81.5053 36.8905 81.5137 36.7756C81.651 34.9772 81.6892 32.9606 80.4052 31.7798C80.1631 31.5575 79.887 31.3785 79.5936 31.1891C79.3376 31.0232 79.0719 30.8518 78.8312 30.6473C78.0314 29.9705 77.5639 29.0038 77.1123 28.0696C76.5837 26.9769 76.085 25.9449 75.1055 25.3899C75.0049 25.3328 74.9702 25.2054 75.0278 25.1056C75.0854 25.0051 75.2137 24.9706 75.3143 25.0271C76.4068 25.6467 76.9583 26.7869 77.491 27.8892C77.9232 28.7842 78.3713 29.7102 79.1045 30.3299C79.3251 30.5165 79.5665 30.6741 79.8239 30.8394C80.118 31.0301 80.4225 31.227 80.691 31.4735C82.1123 32.7802 82.0776 34.9118 81.9333 36.8072C81.925 36.916 81.8327 37 81.7238 37" fill="#639BDA"/>
<path fill-rule="evenodd" clip-rule="evenodd" d="M30 48.3676L9.78052 44L6 58.9804L26.6415 64C27.9807 58.827 28.4081 53.4635 30 48.3676" fill="#ECE0D3"/>
<path fill-rule="evenodd" clip-rule="evenodd" d="M16.1436 60.0577C15.6731 59.5494 16.1848 58.0197 16.6101 57.153C16.004 56.4693 15.6598 54.738 15.1109 54C13.5471 58.9228 12.1814 61.1039 12.0997 61.738C11.9183 63.144 11.8771 63.9253 12.9364 63.7864C13.9951 63.6468 13.6887 65.2398 14.546 64.9578C15.4033 64.6758 15.3142 66.5274 16.0825 65.8499C16.8507 65.1717 16.3397 63.0834 16.3397 63.0834C16.3397 63.0834 17.9486 62.0097 16.1436 60.0577" fill="#E48868"/>
<path fill-rule="evenodd" clip-rule="evenodd" d="M15.5449 24.3873C13.6569 26.9201 13 58.3188 13 58.3188L17.7058 59C17.7058 59 18.5158 52.0837 19.6644 49.913C20.8131 47.7429 21.1172 46.8897 20.1236 44.1746C19.1307 41.4588 23.0126 34.2682 23 30.7413C22.9873 27.2157 16.8546 22.6311 15.5449 24.3873" fill="#EFC33B"/>
<path fill-rule="evenodd" clip-rule="evenodd" d="M29.814 52C29.7239 52 29.6461 51.931 29.6308 51.8325L28.0021 41.025C27.9972 40.9882 28.0009 40.9515 28.0137 40.9173L28.7077 39.1233C28.7463 39.0208 28.8566 38.9729 28.9503 39.0156C29.0452 39.0576 29.0899 39.1738 29.0501 39.2756L28.377 41.0171L29.9977 51.7689C30.0136 51.8779 29.9444 51.9796 29.844 51.9974C29.8336 51.9993 29.8238 52 29.814 52" fill="#E8A12B"/>
<path fill-rule="evenodd" clip-rule="evenodd" d="M19.8532 44C19.8478 44 19.8423 43.9993 19.8368 43.9993C19.7454 43.9873 19.6787 43.883 19.688 43.7654L20.5717 32.2285C20.657 31.1215 20.7446 29.9772 20.5525 28.8844C20.3446 27.7006 19.8023 26.7768 19.1036 26.4118C19.0188 26.3674 18.9777 26.2427 19.0122 26.1335C19.0461 26.0236 19.1435 25.9714 19.2278 26.0158C20.0283 26.433 20.6445 27.4702 20.8765 28.7899C21.0806 29.9505 20.9897 31.1293 20.9022 32.2701L20.0185 43.8076C20.0103 43.9183 19.9375 44 19.8532 44" fill="#E8A12B"/>
<path fill-rule="evenodd" clip-rule="evenodd" d="M25.7849 81C25.7182 81 25.6521 80.9716 25.6102 80.9175L22.0402 76.3166C21.9713 76.2269 21.9933 76.1015 22.0885 76.0375C22.1865 75.9735 22.32 75.9933 22.3904 76.0824L25.9604 80.6833C26.0286 80.7731 26.0065 80.8984 25.9114 80.9624C25.8723 80.9875 25.829 81 25.7849 81" fill="#BA745D"/>
<path fill-rule="evenodd" clip-rule="evenodd" d="M21.2431 18C27.2927 14.4814 30 8.69998 30 8.69998L27.1504 4.59995C27.1504 4.59995 17.0395 1.68655 14.4516 8.69998C11.8637 15.7121 21.2431 18 21.2431 18" fill="#393762"/>
</svg>
