<svg width="413" height="585" viewBox="0 0 413 585" fill="none" xmlns="http://www.w3.org/2000/svg">
<g opacity="0.516625">
<path d="M-446.23 457.843C-446.851 453.347 -440.304 434.228 -438.485 430.016C-427.777 405.219 -390.143 310.678 -436.711 272.119C-489.338 228.495 -515.67 132.221 -426.845 93.1109C-358.381 62.9742 -314.963 -49.7986 -185.053 25.4099C-55.1432 100.618 32.0312 11.8697 89.5915 16.3831C147.152 20.8965 265.564 19.395 291.869 111.147C318.174 202.898 480.998 242.017 380.675 366.873C280.353 491.729 374.119 548.893 252.416 571.442C130.712 593.991 148.811 553.389 20.5334 560.914C-107.744 568.439 -114.318 583.481 -244.246 584.982C-366.038 586.404 -440.153 501.875 -446.23 457.843Z" fill="#F8F8FF"/>
<path d="M-416 364.85L379.304 368L400 336.376C400 336.376 323.462 268.669 236.63 297.444C162.257 322.113 71.8303 276.863 30.7836 275.19C-68.7048 271.138 -95.5072 333.111 -155.209 333.111C-214.911 333.111 -239.521 271.642 -307.157 281.482C-374.794 291.321 -416 364.85 -416 364.85Z" fill="#F5F5FC"/>
<path d="M214.083 365.677C214.083 365.677 227.141 366.404 229.277 365.677C231.412 364.95 228.551 363.002 224.212 363.002C219.874 363.002 217.84 362.944 215.662 363.409C215.092 363.513 214.597 363.816 214.298 364.246C213.998 364.677 213.921 365.195 214.083 365.677V365.677Z" fill="#E9EDFA"/>
<path d="M219.93 361.939C219.93 361.939 214.248 356.667 216.548 356.514C218.849 356.362 221.002 357.72 221.305 358.773C221.608 359.825 221.616 354.851 223.147 355.003C224.678 355.156 225.448 356.812 224.834 358.925C224.834 358.925 226.832 357.27 228.674 357.27C230.516 357.27 230.213 359.528 229.132 360.284C228.052 361.039 224.834 363 224.834 363H219.766L219.93 361.939Z" fill="#E9EDFA"/>
<path d="M276.083 367.677C276.083 367.677 289.141 368.404 291.277 367.677C293.412 366.95 290.551 365.002 286.212 365.002C281.874 365.002 279.84 364.944 277.662 365.409C277.092 365.513 276.597 365.816 276.298 366.246C275.998 366.677 275.921 367.195 276.083 367.677V367.677Z" fill="#E9EDFA"/>
<path d="M280.93 363.939C280.93 363.939 275.248 358.667 277.548 358.514C279.849 358.362 282.002 359.72 282.305 360.773C282.608 361.825 282.616 356.851 284.147 357.003C285.678 357.156 286.448 358.812 285.834 360.925C285.834 360.925 287.832 359.27 289.674 359.27C291.516 359.27 291.213 361.528 290.132 362.284C289.052 363.039 285.834 365 285.834 365H280.766L280.93 363.939Z" fill="#E9EDFA"/>
<path d="M312.083 367.677C312.083 367.677 325.141 368.404 327.277 367.677C329.412 366.95 326.551 365.002 322.212 365.002C317.874 365.002 315.84 364.944 313.662 365.409C313.092 365.513 312.597 365.816 312.298 366.246C311.998 366.677 311.921 367.195 312.083 367.677V367.677Z" fill="#E9EDFA"/>
<path d="M315.93 363.939C315.93 363.939 310.248 358.667 312.548 358.514C314.849 358.362 317.002 359.72 317.305 360.773C317.608 361.825 317.616 356.851 319.147 357.003C320.678 357.156 321.448 358.812 320.834 360.925C320.834 360.925 322.832 359.27 324.674 359.27C326.516 359.27 326.213 361.528 325.132 362.284C324.052 363.039 320.834 365 320.834 365H315.766L315.93 363.939Z" fill="#E9EDFA"/>
<path d="M142.709 366L141.892 340.118C141.892 340.118 110.036 338.64 123.66 313.837C123.66 313.837 126.946 313.368 126.946 309.156C126.946 304.944 119.432 304.944 118.953 302.139C118.473 299.334 118.482 293.29 125.995 288.105C133.509 282.92 116.599 271.292 116.138 269.39C115.676 267.487 116.138 262.842 121.306 258.161C126.475 253.48 127.878 248.339 127.407 243.658C126.937 238.977 114.255 232.898 119.894 228.217C125.534 223.536 137.274 219.793 138.206 216.05C139.139 212.307 137.736 195.459 149.006 199.671C160.275 203.883 185.168 198.733 190.337 199.202C197.566 199.685 204.159 203.488 208.179 209.493C213.818 217.457 217.575 211.829 219.919 217.457C222.264 223.085 217.104 241.348 221.331 246.003C225.559 250.657 232.13 254.427 229.324 262.815C226.518 271.204 216.172 276.389 216.172 279.628C216.172 282.866 220.869 294.131 220.869 297.405C220.869 300.679 218.987 305.829 213.356 306.767C207.726 307.705 207.255 310.51 207.255 316.589C207.255 322.668 203.028 317.996 203.028 317.996L203.969 364.319H196.927C196.927 364.319 196.927 321.739 195.515 317.058H190.817L191.287 364.319H185.648L185.177 322.208C185.177 322.208 178.135 313.784 175.32 313.359C172.504 312.934 177.202 365.301 177.202 365.301H172.034L170.622 317.571C170.622 317.571 168.277 326.933 165.924 326.933C163.57 326.933 166.865 364.832 166.865 364.832H161.696L159.814 326.464C159.814 326.464 156.998 321.314 154.645 327.871C152.292 334.428 150.613 329.154 151.093 331.959C151.572 334.764 151.705 365.991 151.705 365.991L142.709 366Z" fill="#E9EDFA"/>
<path d="M340.66 365.743L348.024 366L347.656 339.883C347.656 339.883 354.582 332.885 359.197 333.354C363.811 333.823 374.423 336.149 380.43 330.089C386.437 324.029 381.813 317.5 385.044 317.5C388.275 317.5 382.277 310.041 382.277 306.777C382.277 304.671 388.45 271.388 374.931 274.661C363.058 277.501 357.664 255.534 344.706 263.921C334.47 270.547 320.705 266.655 319.76 273.157C317.475 288.755 304.279 283.818 306.188 292.78C308.955 305.839 307.064 311.439 312.589 312.837C318.114 314.235 311.205 320.295 313.508 324.967C315.811 329.638 313.972 334.292 320.434 334.292C326.896 334.292 331.046 336.158 335.205 337.087C339.364 338.016 340.284 340.352 340.284 340.352L340.66 365.743Z" fill="#E9EDFA"/>
<path d="M266.469 367.752L257.279 368V252.901C257.279 252.901 232.997 256.844 230.295 251.59C227.594 246.336 228.049 244.59 219.955 244.59C211.861 244.59 208.714 244.156 212.761 237.147C216.808 230.138 222.656 238.033 216.808 230.147C210.961 222.261 208.393 216.351 216.487 211.54C224.581 206.729 221.577 208.253 221.577 199.064C221.577 189.876 232.542 199.951 230.295 190.762C228.049 181.574 220.107 182.619 220.561 173.431C221.016 164.242 227.149 159.688 226.703 157.065C226.257 154.443 232.997 149.623 237.944 144.811C242.891 140 243.792 133.868 253.232 135.18C262.672 136.491 265.828 136.952 263.127 144.811C260.426 152.671 272.576 146.583 274.367 149.188C276.159 151.793 273.021 154.443 278.415 156.188C283.808 157.934 281.98 157.5 276.168 160.999C270.356 164.499 274.385 167.565 278.415 167.565C282.444 167.565 286.963 159.688 287.864 163.188C288.764 166.688 294.157 164.96 290.538 174.565C286.919 184.17 286.972 182.442 288.755 184.196C290.538 185.951 291.001 185.969 288.755 188.139C286.509 190.31 299.096 186.367 299.096 191.205C299.096 196.043 299.987 205.214 296.849 211.771C293.711 218.327 309.445 213.082 308.99 216.148C308.536 219.213 308.099 222.27 304.943 223.147C301.788 224.025 293.248 224.034 298.65 226.213C304.052 228.393 303.704 233.045 303.704 234.799C303.704 236.554 307.377 242.561 301.529 244.315C295.681 246.07 308.545 252.476 303.152 252.91C296.625 253.436 290.057 252.692 283.817 250.722C277.523 248.533 269.42 248.063 268.074 251.608C266.728 255.152 264.027 252.494 264.027 252.494L266.469 367.752Z" fill="#BAC6F2"/>
<path d="M-202 400V421H143V400.875L-202 400V400Z" fill="#B1C1F2"/>
<path d="M97 328L97.7942 402H108L107.954 328H97V328Z" fill="#B1C1F2"/>
<path d="M-183 328C-183 328 -180.337 318 -173.236 318L113.692 318.073C114.659 318.072 115.611 318.319 116.461 318.791C118.884 320.127 123.686 323.336 125 328H-183Z" fill="#BAC6F2"/>
<path d="M-184 339V346.774L124 347L123.761 339.461L-184 339V339Z" fill="#BAC6F2"/>
<path d="M-184 357V364.774L124 365L123.761 357.461L-184 357V357Z" fill="#BAC6F2"/>
<path d="M-184 378V385.774L124 386L123.761 378.461L-184 378V378Z" fill="#BAC6F2"/>
<path d="M-184 394V401.774L124 402L123.761 394.461L-184 394V394Z" fill="#BAC6F2"/>
<path d="M88 421.241L88.4766 476H114L113.523 421L88 421.241V421.241Z" fill="#BAC6F2"/>
</g>
</svg>
