<svg width="134" height="202" viewBox="0 0 134 202" fill="none" xmlns="http://www.w3.org/2000/svg">
<path d="M71.3631 182.384C71.3631 182.384 82.564 196.019 73.3874 196.395C64.2108 196.771 45.3852 207.759 41.782 197.913C38.1788 188.066 30.986 183.143 35.3786 182.008C39.7712 180.873 43.7793 176.326 52.9829 177.085C62.1865 177.844 71.3631 182.384 71.3631 182.384Z" fill="#F5F5FC"/>
<path d="M74.649 117.459C74.649 117.459 80 118.034 80 124.62C80 131.206 76.561 188.311 63.4929 189.433C54.9987 190.165 46.0092 190.117 41.566 189.693C39.6471 189.508 37.7625 183.743 37.4393 181.431C35.7129 170.085 33.4913 142.449 33.003 126.35C32.9067 123.101 35.1558 118.745 36.3319 117.678C42.8247 111.783 74.649 117.459 74.649 117.459Z" fill="#E1E6FB"/>
<path d="M11.2148 7.65388C13.2744 5.75486 16.1441 8.33453 15.0525 11.0163C14.0159 13.5824 13.295 18.0406 17.4486 22.8188C23.8952 30.2311 47.1484 55.2791 46.915 71.3833C46.6816 87.4875 51.7208 91.9798 46.915 98.1124C42.1092 104.245 22.7418 104 17.6751 90.9656C12.6085 77.9311 -0.243642 72.6629 0.00351334 54.013C0.250669 35.3632 2.50253 27.1682 4.80932 20.7836C6.23733 16.7338 8.51665 10.1587 11.2148 7.65388Z" fill="#E9EDFB"/>
<path d="M46 115C46 115 43.9767 85.7212 21.3701 72.9761C7.2072 64.9891 6.24952 37.2667 9.63512 31" stroke="white" stroke-width="3" stroke-linecap="round" stroke-linejoin="round"/>
<path d="M43.3387 127C43.3387 127 35.4035 156.021 44 179Z" fill="#BAC5F4"/>
<path d="M26.9434 0.632233C29.1213 -1.19663 32.1936 1.26925 31.0398 3.86528C29.9337 6.33801 29.1691 10.6259 33.5931 15.222C40.4613 22.3594 65.2305 46.4702 64.9984 61.9711C64.7663 77.4719 64.9984 86.5751 59.8507 92.4795C54.7029 98.3839 42.7826 93.6439 37.4096 81.0953C32.0365 68.5467 14.7568 63.204 15.0026 45.2373C15.2484 27.2706 17.6652 19.4003 20.1162 13.2493C21.6387 9.37242 24.076 3.04332 26.9434 0.632233Z" fill="#BAC5F4"/>
<path d="M56.34 116C56.34 116 64.5017 76.0691 44.6301 52.1037C36.6829 42.523 24.8969 23.2796 25.0007 14" stroke="white" stroke-width="3" stroke-linecap="round" stroke-linejoin="round"/>
<path d="M87.9737 7.65585C85.9735 5.75111 83.1462 8.33855 84.2107 11.0284C85.2277 13.6022 85.9328 18.0739 81.8647 22.8665C75.5524 30.3011 52.7779 55.4246 53.0016 71.5773C53.2254 87.7301 53.0016 97.2128 57.7477 103.371C62.4938 109.529 73.4167 104.586 78.3797 91.5122C83.3428 78.4385 99.1948 72.8608 98.9982 54.1547C98.8016 35.4487 96.5506 27.2289 94.2928 20.8252C92.8418 16.7631 90.6111 10.1682 87.9737 7.65585Z" fill="#E9EDFB"/>
<path d="M62.3395 116C62.3395 116 53.1331 79.8424 71.2462 55.9648C78.4915 46.4137 90.0947 32.2509 89.9994 23" stroke="white" stroke-width="3" stroke-linecap="round" stroke-linejoin="round"/>
<path d="M102.422 70.3843C102.422 70.3843 121.295 70.8189 131.483 47.8954C141.67 24.972 118.749 20.3479 101.844 32.6177C84.9402 44.8874 91.8879 49.98 71.7442 61.3263C51.6005 72.6726 55.9946 95.1275 62.236 101.144C68.4775 107.16 80.2948 116.421 88.173 92.1127C96.0512 67.8041 102.422 70.3843 102.422 70.3843Z" fill="#B0C0F4"/>
<path d="M66.0028 117C66.0028 117 64.6322 59.7708 122 44" stroke="white" stroke-width="3" stroke-linecap="round" stroke-linejoin="round"/>
<path d="M74 117.409C74 117.409 50.9624 113.573 41.9624 115.582C32.9624 117.591 57.8392 119.963 57.8392 119.963C57.8392 119.963 69.6927 120.509 74 117.409Z" fill="#BAC5F4"/>
</svg>
